<svg id="Layer_2" data-name="Layer 2" xmlns="http://www.w3.org/2000/svg" viewBox="0 0 842 595"><defs><style>.cls-1,.cls-8{fill:#1c493c;}.cls-1,.cls-2,.cls-3,.cls-4,.cls-5,.cls-6,.cls-7{fill-rule:evenodd;}.cls-2{fill:#ed1651;}.cls-3{fill:#f48580;}.cls-4{fill:#fcd3c1;}.cls-5{fill:#ffcb05;}.cls-6{fill:#f58345;}.cls-7{fill:#ed1c24;}</style></defs><path class="cls-1" d="M706,301.37c.95,0,3.34,1.16,2.84,0C758.64,331.25,814.3,475.89,832.91,577c-.85.19-1.71.4-2.57.58C812.26,476.57,757.56,331.78,706,301.37Z"/><path class="cls-1" d="M683.56,424.74c2.26,0,8,2.77,6.76,0,49.49,29.67,82.29,86.85,104,157.83h-.08c-1.41.1-2.82.2-4.23.28l-.4,0C767.94,512.05,734.64,454.84,683.56,424.74Z"/><path class="cls-1" d="M662.73,193.45c2.25,0,8,2.76,6.75,0,95.83,57.43,149.28,217,174.57,380.66q-2.73.78-5.48,1.47C814.42,411.8,762,251.93,662.73,193.45Z"/><path class="cls-1" d="M563.62,461.18c.94,0,3.34,1.16,2.83,0,24.49,14.67,50.37,57,72.58,108.32l-2.2-.31C614.77,518.19,588.83,476,563.62,461.18Z"/><path class="cls-1" d="M420.36,413c1.92,0,6.78,2.36,5.75,0,45.18,27.08,85.12,81.09,117.65,147.64l-4.21-.06C507.16,494.34,466.91,440.45,420.36,413Z"/><path class="cls-1" d="M547.15,331.94c1.92,0,6.78,2.35,5.75,0,66.25,39.7,121.27,137.3,158.08,247.5l-4.63-.55C670.15,469.26,615.41,372.16,547.15,331.94Z"/><path class="cls-1" d="M486.87,199.05c1,0,3.64,1.26,3.09,0,66.35,39.77,183.73,279.43,183.73,377.65h-3.08C670.61,478.48,555.43,239.45,486.87,199.05Z"/><path class="cls-2" d="M659,193.06s-3.38-11.85-18-25.62S623.2,129.7,637.57,120,669,129.4,669,129.4s21.52-13.41,32.43.08.79,35.46-17.16,44.4S659,193.06,659,193.06Z"/><path class="cls-2" d="M655.09,196.53s-11.84,3.38-25.62,17.95S591.73,232.33,582,218s9.43-31.44,9.43-31.44S578,165,591.52,154.09s35.46-.79,44.39,17.16S655.09,196.53,655.09,196.53Z"/><path class="cls-2" d="M658.56,200.43s3.38,11.85,18,25.62,17.85,37.74,3.48,47.47-31.44-9.43-31.44-9.43S627,277.51,616.12,264s-.78-35.46,17.16-44.39S658.56,200.43,658.56,200.43Z"/><path class="cls-2" d="M662.47,197s11.84-3.39,25.62-17.95,37.74-17.86,47.47-3.48S726.13,207,726.13,207s13.41,21.52-.08,32.44-35.47.78-44.4-17.17S662.47,197,662.47,197Z"/><path class="cls-3" d="M656.93,194.67s-8.1-4.51-23.18-4.09S604.16,180,606.63,167.17s21.75-11.71,21.75-11.71,4.31-18.59,17.3-17.22S665,156.7,660.18,171,656.93,194.67,656.93,194.67Z"/><path class="cls-3" d="M656.7,198.59s-4.5,8.11-4.08,23.19S642,251.37,629.21,248.9s-11.72-21.75-11.72-21.75-18.59-4.31-17.21-17.31,18.45-19.29,32.76-14.49S656.7,198.59,656.7,198.59Z"/><path class="cls-3" d="M660.63,198.82s8.1,4.51,23.18,4.09,29.59,10.58,27.12,23.41S689.18,238,689.18,238s-4.31,18.59-17.3,17.22-19.29-18.46-14.5-32.76S660.63,198.82,660.63,198.82Z"/><path class="cls-3" d="M660.86,194.9s4.51-8.1,4.08-23.19,10.58-29.59,23.41-27.11,11.72,21.74,11.72,21.74,18.59,4.32,17.21,17.31-18.45,19.29-32.76,14.5S660.86,194.9,660.86,194.9Z"/><path class="cls-4" d="M656.76,196.63s-6.5,1.85-14.06,9.85-20.72,9.8-26.06,1.91,5.17-17.26,5.17-17.26-7.36-11.81.05-17.8,19.46-.43,24.37,9.42S656.76,196.63,656.76,196.63Z"/><path class="cls-4" d="M658.66,198.77s1.86,6.5,9.85,14.06,9.8,20.71,1.91,26-17.25-5.17-17.25-5.17-11.81,7.36-17.8,0-.44-19.47,9.42-24.37S658.66,198.77,658.66,198.77Z"/><path class="cls-4" d="M660.8,196.87s6.51-1.86,14.07-9.86,20.71-9.8,26-1.91-5.17,17.26-5.17,17.26,7.36,11.81,0,17.8-19.46.43-24.37-9.42S660.8,196.87,660.8,196.87Z"/><path class="cls-4" d="M658.9,194.72s-1.86-6.5-9.85-14.06-9.8-20.71-1.91-26,17.25,5.17,17.25,5.17,11.81-7.36,17.8.05.44,19.46-9.41,24.36S658.9,194.72,658.9,194.72Z"/><path class="cls-5" d="M661.72,177A20,20,0,1,1,639,193.81,20,20,0,0,1,661.72,177Z"/><path class="cls-6" d="M661.36,179.4a2.27,2.27,0,1,1-2.58,1.91A2.28,2.28,0,0,1,661.36,179.4Z"/><path class="cls-6" d="M656.87,209.6a2.27,2.27,0,0,1-.67,4.5,2.27,2.27,0,1,1,.67-4.5Z"/><path class="cls-6" d="M648.34,182.65a2.28,2.28,0,1,1-.48,3.18A2.28,2.28,0,0,1,648.34,182.65Z"/><path class="cls-6" d="M666.52,207.19a2.27,2.27,0,1,1-.48,3.18A2.27,2.27,0,0,1,666.52,207.19Z"/><path class="cls-6" d="M641.43,194.16a2.27,2.27,0,0,1,4.5.67,2.27,2.27,0,1,1-4.5-.67Z"/><path class="cls-6" d="M671.63,198.66a2.27,2.27,0,1,1,1.92,2.59A2.28,2.28,0,0,1,671.63,198.66Z"/><path class="cls-6" d="M644.68,207.19a2.28,2.28,0,1,1,3.19.47A2.28,2.28,0,0,1,644.68,207.19Z"/><path class="cls-6" d="M669.22,189a2.28,2.28,0,1,1,3.18.48A2.28,2.28,0,0,1,669.22,189Z"/><path class="cls-6" d="M656.54,185.74a2.28,2.28,0,1,1-1.78,2.69A2.28,2.28,0,0,1,656.54,185.74Z"/><path class="cls-6" d="M660.11,203.29a2.28,2.28,0,1,1-1.77,2.68A2.29,2.29,0,0,1,660.11,203.29Z"/><path class="cls-6" d="M649.42,190.55a2.27,2.27,0,1,1,.64,3.16A2.28,2.28,0,0,1,649.42,190.55Z"/><path class="cls-6" d="M664.35,200.43a2.28,2.28,0,1,1,.64,3.15A2.28,2.28,0,0,1,664.35,200.43Z"/><path class="cls-6" d="M647.78,199a2.28,2.28,0,1,1,2.68,1.77A2.27,2.27,0,0,1,647.78,199Z"/><path class="cls-6" d="M665.33,195.41a2.27,2.27,0,1,1,2.68,1.78A2.26,2.26,0,0,1,665.33,195.41Z"/><path class="cls-6" d="M652.59,206.11a2.27,2.27,0,1,1,3.15-.64A2.27,2.27,0,0,1,652.59,206.11Z"/><path class="cls-6" d="M662.46,191.18a2.28,2.28,0,1,1,3.16-.65A2.29,2.29,0,0,1,662.46,191.18Z"/><path class="cls-7" d="M487.38,198.93s-2-5.43-9.29-11.38-9.67-17.05-3.28-22.1,15.05,3.33,15.05,3.33,9.61-7,15.19-1.09,1.59,16.58-6.5,21.38S487.38,198.93,487.38,198.93Z"/><path class="cls-7" d="M487.43,202.4s2,5.42,9.29,11.37,9.67,17,3.28,22.1S485,232.55,485,232.55s-9.61,7-15.19,1.08-1.59-16.57,6.5-21.38S487.43,202.4,487.43,202.4Z"/><path class="cls-7" d="M489.14,200.64s5.43-2,11.37-9.29,17-9.67,22.11-3.28-3.33,15.05-3.33,15.05,7,9.61,1.09,15.18-16.58,1.6-21.38-6.49S489.14,200.64,489.14,200.64Z"/><path class="cls-3" d="M488.18,190.18a10.51,10.51,0,1,1-11.26,9.71A10.51,10.51,0,0,1,488.18,190.18Z"/><path class="cls-2" d="M488.09,191.45a1.2,1.2,0,1,1-1.28,1.1A1.19,1.19,0,0,1,488.09,191.45Z"/><path class="cls-2" d="M486.9,207.49a1.2,1.2,0,1,1-1.28,1.1A1.2,1.2,0,0,1,486.9,207.49Z"/><path class="cls-2" d="M481.37,193.66a1.2,1.2,0,1,1-.12,1.69A1.2,1.2,0,0,1,481.37,193.66Z"/><path class="cls-2" d="M491.87,205.85a1.2,1.2,0,1,1-.12,1.69A1.2,1.2,0,0,1,491.87,205.85Z"/><path class="cls-2" d="M478.19,200a1.2,1.2,0,1,1,1.11,1.28A1.2,1.2,0,0,1,478.19,200Z"/><path class="cls-2" d="M494.23,201.17a1.2,1.2,0,1,1,1.11,1.28A1.2,1.2,0,0,1,494.23,201.17Z"/><path class="cls-2" d="M480.41,206.7a1.2,1.2,0,1,1,1.69.12A1.19,1.19,0,0,1,480.41,206.7Z"/><path class="cls-2" d="M492.59,196.2a1.22,1.22,0,0,1,.12-1.7,1.2,1.2,0,1,1-.12,1.7Z"/><path class="cls-2" d="M485.8,195a1.2,1.2,0,1,1-.83,1.48A1.2,1.2,0,0,1,485.8,195Z"/><path class="cls-2" d="M488.36,204.05a1.2,1.2,0,1,1-.83,1.48A1.2,1.2,0,0,1,488.36,204.05Z"/><path class="cls-2" d="M482.25,197.77a1.21,1.21,0,0,1,1.63-.46,1.22,1.22,0,0,1,.46,1.64,1.2,1.2,0,0,1-2.09-1.18Z"/><path class="cls-2" d="M490.47,202.38a1.21,1.21,0,0,1,1.63-.46,1.2,1.2,0,1,1-1.17,2.09A1.21,1.21,0,0,1,490.47,202.38Z"/><path class="cls-2" d="M481.71,202.27a1.2,1.2,0,1,1,1.48.83A1.21,1.21,0,0,1,481.71,202.27Z"/><path class="cls-2" d="M490.79,199.71a1.2,1.2,0,1,1,1.48.82A1.2,1.2,0,0,1,490.79,199.71Z"/><path class="cls-2" d="M484.52,205.82a1.2,1.2,0,0,1,1.17-2.09,1.21,1.21,0,0,1,.46,1.63A1.19,1.19,0,0,1,484.52,205.82Z"/><path class="cls-2" d="M489.12,197.59a1.2,1.2,0,0,1,1.17-2.09,1.2,1.2,0,1,1-1.17,2.09Z"/><path class="cls-2" d="M419.91,413.77s-4.9-7.53-18-14-20.56-22.49-12.62-32.37,24-.17,24-.17,12.13-14,22.64-6.91S444,384.87,433.43,395,419.91,413.77,419.91,413.77Z"/><path class="cls-2" d="M417.93,417s-7.54,4.91-14,18-22.5,20.56-32.37,12.63-.18-24-.18-24-14-12.13-6.91-22.64,24.58-8.17,34.66,2.43S417.93,417,417.93,417Z"/><path class="cls-2" d="M229.53,447s4.9,7.54,18,14,20.56,22.5,12.62,32.38-24,.17-24,.17-12.13,14-22.64,6.91-8.17-24.57,2.43-34.66S229.53,447,229.53,447Z"/><path class="cls-2" d="M423.17,415.76s7.54-4.91,14-18,22.49-20.57,32.37-12.63.17,24,.17,24,14,12.13,6.91,22.65-24.57,8.16-34.66-2.44S423.17,415.76,423.17,415.76Z"/><path class="cls-3" d="M418.81,415.34s-6.62-1.4-17.05,2.13-22.92-1-23.95-10.51,12.65-12.84,12.65-12.84-1-13.9,8.38-15.73,17.43,8.73,17.16,19.74S418.81,415.34,418.81,415.34Z"/><path class="cls-3" d="M292.7,413.7s-1.4,6.63,2.14,17.06-1,22.92-10.51,23.95-12.85-12.66-12.85-12.66-13.89,1-15.73-8.38,8.73-17.42,19.75-17.15S292.7,413.7,292.7,413.7Z"/><path class="cls-3" d="M422.28,417.45s6.62,1.4,17.06-2.14,22.92,1,24,10.51-12.66,12.85-12.66,12.85,1,13.9-8.38,15.73-17.42-8.73-17.15-19.75S422.28,417.45,422.28,417.45Z"/><path class="cls-4" d="M419.11,416.74s-4.14,2.69-7.69,9.89-12.35,11.29-17.77,6.94-.1-13.15-.1-13.15-7.67-6.66-3.79-12.43,13.49-4.49,19,1.33S419.11,416.74,419.11,416.74Z"/><path class="cls-4" d="M137.83,478.28s2.7,4.13,9.9,7.69,11.29,12.35,6.93,17.77-13.15.1-13.15.1-6.66,7.67-12.43,3.79-4.49-13.49,1.34-19S137.83,478.28,137.83,478.28Z"/><path class="cls-4" d="M422,416s4.14-2.69,7.7-9.89,12.35-11.29,17.77-6.93.1,13.15.1,13.15,7.67,6.66,3.79,12.43-13.49,4.48-19-1.34S422,416,422,416Z"/><path class="cls-4" d="M420.2,415s-2.69-4.14-9.89-7.7-11.29-12.34-6.94-17.77,13.15-.1,13.15-.1,6.66-7.67,12.43-3.79,4.49,13.49-1.33,19S420.2,415,420.2,415Z"/><path class="cls-5" d="M418.36,402a14.58,14.58,0,1,1-12.22,16.6A14.59,14.59,0,0,1,418.36,402Z"/><path class="cls-6" d="M418.62,403.73a1.66,1.66,0,1,1-1.39,1.89A1.66,1.66,0,0,1,418.62,403.73Z"/><path class="cls-6" d="M422,425.77a1.66,1.66,0,1,1-1.39,1.89A1.67,1.67,0,0,1,422,425.77Z"/><path class="cls-6" d="M410.24,408.8a1.66,1.66,0,1,1,.35,2.32A1.66,1.66,0,0,1,410.24,408.8Z"/><path class="cls-6" d="M428.19,422a1.66,1.66,0,1,1,.35,2.32A1.66,1.66,0,0,1,428.19,422Z"/><path class="cls-6" d="M407.89,418.32a1.66,1.66,0,1,1,3.28-.5,1.66,1.66,0,1,1-3.28.5Z"/><path class="cls-6" d="M429.93,415a1.66,1.66,0,1,1,3.28-.5,1.66,1.66,0,1,1-3.28.5Z"/><path class="cls-6" d="M413,426.71a1.66,1.66,0,1,1,2.32-.36A1.67,1.67,0,0,1,413,426.71Z"/><path class="cls-6" d="M426.17,408.76a1.66,1.66,0,0,1,2-2.68,1.66,1.66,0,0,1-2,2.68Z"/><path class="cls-6" d="M416.62,409.2a1.66,1.66,0,1,1-.66,2.25A1.66,1.66,0,0,1,416.62,409.2Z"/><path class="cls-6" d="M422.89,420.67a1.66,1.66,0,1,1-.67,2.25A1.66,1.66,0,0,1,422.89,420.67Z"/><path class="cls-6" d="M412.68,414.08a1.66,1.66,0,1,1,1.13,2.06A1.67,1.67,0,0,1,412.68,414.08Z"/><path class="cls-6" d="M425.23,417.77a1.66,1.66,0,1,1,1.12,2.06A1.66,1.66,0,0,1,425.23,417.77Z"/><path class="cls-6" d="M413.36,420.32a1.66,1.66,0,1,1,2.25.66A1.65,1.65,0,0,1,413.36,420.32Z"/><path class="cls-6" d="M424.83,414.06a1.66,1.66,0,1,1,2.25.66A1.67,1.67,0,0,1,424.83,414.06Z"/><path class="cls-6" d="M418.24,424.26a1.66,1.66,0,1,1,2.06-1.13A1.67,1.67,0,0,1,418.24,424.26Z"/><path class="cls-6" d="M421.92,411.71a1.66,1.66,0,1,1,2.06-1.12A1.65,1.65,0,0,1,421.92,411.71Z"/><path class="cls-7" d="M560.11,456.84s-3.6-4.53-12.4-7.88S533.17,435.81,537.66,429,553,427.43,553,427.43s6.92-9.68,14.08-5.8,6.73,15.24.55,22.34S560.11,456.84,560.11,456.84Z"/><path class="cls-7" d="M559,459.05s-4.52,3.6-7.87,12.39S538,486,531.2,481.5s-1.57-15.33-1.57-15.33-9.69-6.92-5.8-14.08,15.23-6.72,22.34-.55S559,459.05,559,459.05Z"/><path class="cls-7" d="M561.24,460.12s3.6,4.52,12.4,7.88,14.53,13.15,10.05,19.95-15.33,1.57-15.33,1.57-6.91,9.69-14.08,5.8-6.72-15.23-.55-22.33S561.24,460.12,561.24,460.12Z"/><path class="cls-3" d="M558.12,448.28A10.52,10.52,0,1,1,550.48,461,10.51,10.51,0,0,1,558.12,448.28Z"/><path class="cls-2" d="M558.43,449.52a1.2,1.2,0,1,1-.87,1.45A1.18,1.18,0,0,1,558.43,449.52Z"/><path class="cls-2" d="M562.34,465.12a1.2,1.2,0,1,1-.87,1.45A1.2,1.2,0,0,1,562.34,465.12Z"/><path class="cls-2" d="M552.75,453.73a1.2,1.2,0,1,1,.41,1.65A1.19,1.19,0,0,1,552.75,453.73Z"/><path class="cls-2" d="M566.54,462a1.2,1.2,0,1,1,.41,1.64A1.2,1.2,0,0,1,566.54,462Z"/><path class="cls-2" d="M551.71,460.73a1.2,1.2,0,1,1,1.45.87A1.21,1.21,0,0,1,551.71,460.73Z"/><path class="cls-2" d="M567.31,456.82a1.2,1.2,0,0,1,2.33-.59,1.22,1.22,0,0,1-.88,1.46A1.2,1.2,0,0,1,567.31,456.82Z"/><path class="cls-2" d="M555.92,466.41a1.2,1.2,0,1,1,1.65-.42A1.21,1.21,0,0,1,555.92,466.41Z"/><path class="cls-2" d="M564.19,452.61a1.2,1.2,0,1,1,1.64-.41A1.2,1.2,0,0,1,564.19,452.61Z"/><path class="cls-2" d="M557.36,453.58a1.2,1.2,0,1,1-.32,1.66A1.19,1.19,0,0,1,557.36,453.58Z"/><path class="cls-2" d="M562.64,461.39a1.2,1.2,0,1,1-.32,1.67A1.21,1.21,0,0,1,562.64,461.39Z"/><path class="cls-2" d="M554.87,457.36a1.2,1.2,0,1,1,1,1.4A1.19,1.19,0,0,1,554.87,457.36Z"/><path class="cls-2" d="M564.13,459.14a1.2,1.2,0,0,1,2.35.46,1.2,1.2,0,1,1-2.35-.46Z"/><path class="cls-2" d="M555.77,461.79a1.2,1.2,0,1,1,1.67.32A1.2,1.2,0,0,1,555.77,461.79Z"/><path class="cls-2" d="M563.59,456.51a1.2,1.2,0,1,1,1.66.32A1.21,1.21,0,0,1,563.59,456.51Z"/><path class="cls-2" d="M559.55,464.29a1.2,1.2,0,1,1,1.41-1A1.21,1.21,0,0,1,559.55,464.29Z"/><path class="cls-2" d="M561.34,455a1.2,1.2,0,1,1,1.4-.95A1.21,1.21,0,0,1,561.34,455Z"/><path class="cls-7" d="M712.46,305.89s-.84-5.72-6.76-13-6-18.67,1.33-22.31,14,6.34,14,6.34,10.85-4.9,15.09,2.06-1.84,16.55-10.74,19.59S712.46,305.89,712.46,305.89Z"/><path class="cls-7" d="M710.43,307.26s-5.72.84-13,6.76-18.67,6-22.31-1.33,6.34-14.05,6.34-14.05-4.9-10.84,2.06-15.08S700,285.4,703.07,294.3,710.43,307.26,710.43,307.26Z"/><path class="cls-7" d="M711.8,309.29s.83,5.72,6.76,13,6,18.67-1.33,22.31-14.05-6.34-14.05-6.34-10.84,4.9-15.08-2.06,1.84-16.55,10.74-19.59S711.8,309.29,711.8,309.29Z"/><path class="cls-7" d="M713.83,307.92s5.72-.83,13-6.76,18.67-6,22.3,1.33-6.34,14.05-6.34,14.05,4.91,10.84-2.05,15.08-16.55-1.84-19.59-10.74S713.83,307.92,713.83,307.92Z"/><path class="cls-3" d="M715,297.49a10.51,10.51,0,1,1-13,7.19A10.51,10.51,0,0,1,715,297.49Z"/><path class="cls-2" d="M714.69,298.71a1.2,1.2,0,1,1-1.49.82A1.21,1.21,0,0,1,714.69,298.71Z"/><path class="cls-2" d="M710.23,314.16a1.2,1.2,0,1,1-1.48.83A1.21,1.21,0,0,1,710.23,314.16Z"/><path class="cls-2" d="M707.66,299.5a1.2,1.2,0,1,1-.47,1.63A1.2,1.2,0,0,1,707.66,299.5Z"/><path class="cls-2" d="M715.44,313.58a1.2,1.2,0,1,1-.47,1.63A1.2,1.2,0,0,1,715.44,313.58Z"/><path class="cls-2" d="M703.25,305a1.2,1.2,0,1,1,2.3.67,1.2,1.2,0,0,1-2.3-.67Z"/><path class="cls-2" d="M718.7,309.49a1.2,1.2,0,0,1,2.31.66,1.2,1.2,0,0,1-2.31-.66Z"/><path class="cls-2" d="M704,312.06a1.2,1.2,0,1,1,1.63.47A1.2,1.2,0,0,1,704,312.06Z"/><path class="cls-2" d="M718.12,304.28a1.2,1.2,0,1,1,1.63.47A1.2,1.2,0,0,1,718.12,304.28Z"/><path class="cls-2" d="M711.72,301.69A1.21,1.21,0,0,1,713,302.8a1.2,1.2,0,1,1-2.39.17A1.2,1.2,0,0,1,711.72,301.69Z"/><path class="cls-2" d="M712.37,311.1a1.2,1.2,0,0,1,1.28,1.11,1.21,1.21,0,0,1-1.12,1.28,1.2,1.2,0,0,1-.16-2.39Z"/><path class="cls-2" d="M707.67,303.7a1.2,1.2,0,1,1,.12,1.69A1.2,1.2,0,0,1,707.67,303.7Z"/><path class="cls-2" d="M714.78,309.9a1.2,1.2,0,0,1,1.81,1.58,1.2,1.2,0,0,1-1.81-1.58Z"/><path class="cls-2" d="M706.23,308a1.2,1.2,0,0,1,2.39-.16,1.2,1.2,0,1,1-2.39.16Z"/><path class="cls-2" d="M715.64,307.35a1.2,1.2,0,0,1,1.11-1.28,1.21,1.21,0,0,1,1.28,1.12,1.2,1.2,0,0,1-2.39.16Z"/><path class="cls-2" d="M708.24,312.05a1.2,1.2,0,1,1,1.69-.12A1.2,1.2,0,0,1,708.24,312.05Z"/><path class="cls-2" d="M714.44,304.94a1.2,1.2,0,0,1-.12-1.69,1.2,1.2,0,1,1,1.81,1.57A1.2,1.2,0,0,1,714.44,304.94Z"/><path class="cls-3" d="M350.25,432.87s-.68,3.21,1,8.28-.49,11.12-5.1,11.62-6.23-6.14-6.23-6.14-6.75.48-7.64-4.07,4.24-8.45,9.59-8.32A19.12,19.12,0,0,0,350.25,432.87Z"/><path class="cls-4" d="M307.38,478.28s2.69,4.13,9.89,7.69,11.29,12.35,6.93,17.77-13.15.1-13.15.1-6.66,7.67-12.43,3.79-4.48-13.49,1.34-19S307.38,478.28,307.38,478.28Z"/><path class="cls-4" d="M83.5,448.3s-2.12,2.27-3.21,7.2-5.85,8.73-9.81,6.89-2-8-2-8-5.68-2.92-4.17-7,7.55-4.75,11.8-2A18,18,0,0,0,83.5,448.3Z"/><path class="cls-7" d="M357.38,506.56s4.53-3.6,7.88-12.39,13.15-14.54,20-10.06,1.57,15.33,1.57,15.33,9.69,6.92,5.8,14.08-15.23,6.72-22.34.55S357.38,506.56,357.38,506.56Z"/><path class="cls-4" d="M435.64,476.8s2.7,4.14,9.9,7.7,11.28,12.34,6.93,17.76-13.15.1-13.15.1-6.66,7.68-12.43,3.79-4.49-13.48,1.33-19S435.64,476.8,435.64,476.8Z"/><path class="cls-7" d="M548.83,331.28s-5.53-6.73-18.86-11.54S507.74,300.31,514.32,290s23-2.76,23-2.76,10.17-14.77,21-9.1,10.51,22.77,1.4,33.62S548.83,331.28,548.83,331.28Z"/><path class="cls-7" d="M547.28,334.63s-6.73,5.53-11.54,18.86S516.31,375.71,506,369.14s-2.76-23-2.76-23-14.76-10.16-9.1-21,22.77-10.52,33.62-1.41S547.28,334.63,547.28,334.63Z"/><path class="cls-7" d="M550.63,336.18s5.53,6.72,18.86,11.54,22.22,19.42,15.65,29.79-23,2.76-23,2.76-10.16,14.76-21,9.09-10.52-22.76-1.4-33.61S550.63,336.18,550.63,336.18Z"/><path class="cls-7" d="M552.18,332.83s6.72-5.53,11.54-18.86,19.42-22.23,29.79-15.65,2.76,23,2.76,23,14.76,10.16,9.09,21-22.76,10.51-33.61,1.4S552.18,332.83,552.18,332.83Z"/><path class="cls-3" d="M545.62,318.44a15.83,15.83,0,1,1-11.18,19.4A15.84,15.84,0,0,1,545.62,318.44Z"/><path class="cls-2" d="M546.11,320.29a1.81,1.81,0,1,1-1.27,2.21A1.81,1.81,0,0,1,546.11,320.29Z"/><path class="cls-2" d="M552.4,343.68a1.8,1.8,0,1,1-1.27,2.21A1.81,1.81,0,0,1,552.4,343.68Z"/><path class="cls-2" d="M537.67,326.78a1.81,1.81,0,1,1,.67,2.47A1.82,1.82,0,0,1,537.67,326.78Z"/><path class="cls-2" d="M558.66,338.87a1.8,1.8,0,1,1,.66,2.46A1.8,1.8,0,0,1,558.66,338.87Z"/><path class="cls-2" d="M536.3,337.34a1.8,1.8,0,1,1,2.21,1.28A1.8,1.8,0,0,1,536.3,337.34Z"/><path class="cls-2" d="M559.68,331.05a1.8,1.8,0,1,1,2.21,1.27A1.8,1.8,0,0,1,559.68,331.05Z"/><path class="cls-2" d="M542.79,345.78a1.8,1.8,0,1,1,2.46-.66A1.8,1.8,0,0,1,542.79,345.78Z"/><path class="cls-2" d="M554.87,324.8a1.81,1.81,0,1,1,2.46-.66A1.8,1.8,0,0,1,554.87,324.8Z"/><path class="cls-2" d="M544.61,326.44a1.8,1.8,0,1,1-.44,2.51A1.82,1.82,0,0,1,544.61,326.44Z"/><path class="cls-2" d="M552.77,338.06a1.81,1.81,0,1,1-.44,2.52A1.81,1.81,0,0,1,552.77,338.06Z"/><path class="cls-2" d="M541,332.19a1.8,1.8,0,1,1,1.47,2.09A1.8,1.8,0,0,1,541,332.19Z"/><path class="cls-2" d="M554.94,334.64a1.81,1.81,0,1,1,1.47,2.09A1.81,1.81,0,0,1,554.94,334.64Z"/><path class="cls-2" d="M542.44,338.84a1.8,1.8,0,1,1,2.51.44A1.81,1.81,0,0,1,542.44,338.84Z"/><path class="cls-2" d="M554.07,330.69a1.8,1.8,0,1,1,2.51.44A1.81,1.81,0,0,1,554.07,330.69Z"/><path class="cls-2" d="M548.19,342.5a1.81,1.81,0,1,1,2.09-1.47A1.8,1.8,0,0,1,548.19,342.5Z"/><path class="cls-2" d="M550.64,328.51a1.8,1.8,0,1,1,2.09-1.46A1.8,1.8,0,0,1,550.64,328.51Z"/><path class="cls-2" d="M683.94,427.11s-8.37-9-27.58-14.75-33-25.6-24.55-40.78,32.31-5.79,32.31-5.79,13.13-21.68,29-14.57,16.72,31.28,4.74,47.36S683.94,427.11,683.94,427.11Z"/><path class="cls-2" d="M682,432s-9,8.37-14.75,27.58-25.6,33-40.77,24.55-5.79-32.3-5.79-32.3-21.69-13.14-14.58-29,31.28-16.73,47.36-4.75S682,432,682,432Z"/><path class="cls-2" d="M686.88,433.89s8.37,9,27.59,14.75,33,25.6,24.55,40.77-32.31,5.79-32.31,5.79-13.14,21.69-29,14.58S661,478.5,673,462.42,686.88,433.89,686.88,433.89Z"/><path class="cls-2" d="M688.8,429s9-8.37,14.75-27.59,25.61-33,40.78-24.55,5.79,32.31,5.79,32.31,21.68,13.14,14.57,29-31.28,16.72-47.36,4.75S688.8,429,688.8,429Z"/><path class="cls-3" d="M682.83,429.48s-9.27-.36-22.53,6.83-31.18,3.92-34.77-8.64,14.11-20.27,14.11-20.27-4.55-18.54,7.66-23.18S672.85,392,675,406.9,682.83,429.48,682.83,429.48Z"/><path class="cls-3" d="M684.39,433.08s-.36,9.27,6.83,22.54,3.93,31.17-8.63,34.76-20.28-14.11-20.28-14.11-18.53,4.55-23.18-7.66,7.75-25.55,22.68-27.73S684.39,433.08,684.39,433.08Z"/><path class="cls-3" d="M688,431.52s9.26.36,22.53-6.83,31.18-3.93,34.77,8.64-14.11,20.27-14.11,20.27,4.54,18.53-7.67,23.18S698,469,695.79,454.1,688,431.52,688,431.52Z"/><path class="cls-3" d="M686.43,427.91s.36-9.26-6.83-22.53-3.92-31.18,8.64-34.77,20.27,14.11,20.27,14.11,18.54-4.54,23.18,7.67-7.75,25.55-22.68,27.73S686.43,427.91,686.43,427.91Z"/><path class="cls-4" d="M683.55,431.3s-5,4.6-8.09,15.14-14.05,18.11-22.38,13.48-3.18-17.73-3.18-17.73-11.91-7.21-8-15.9,17.17-9.18,26-2.61S683.55,431.3,683.55,431.3Z"/><path class="cls-4" d="M686.22,432.36s4.59,5,15.14,8.09,18.1,14.06,13.47,22.38S697.1,466,697.1,466s-7.21,11.91-15.9,8-9.18-17.17-2.6-26S686.22,432.36,686.22,432.36Z"/><path class="cls-4" d="M687.27,429.69s5-4.59,8.1-15.14,14-18.1,22.38-13.47,3.18,17.73,3.18,17.73,11.9,7.21,8,15.9-17.17,9.18-26,2.6S687.27,429.69,687.27,429.69Z"/><path class="cls-4" d="M684.61,428.64s-4.6-5-15.14-8.1S651.36,406.49,656,398.16,673.72,395,673.72,395s7.21-11.9,15.91-8,9.17,17.16,2.6,26S684.61,428.64,684.61,428.64Z"/><path class="cls-5" d="M679.12,411.55a20,20,0,1,1-12.65,25.25A20,20,0,0,1,679.12,411.55Z"/><path class="cls-6" d="M679.88,413.85a2.28,2.28,0,1,1-1.44,2.88A2.29,2.29,0,0,1,679.88,413.85Z"/><path class="cls-6" d="M689.51,442.83a2.28,2.28,0,1,1-1.44,2.88A2.28,2.28,0,0,1,689.51,442.83Z"/><path class="cls-6" d="M669.73,422.64a2.28,2.28,0,1,1,1,3.05A2.27,2.27,0,0,1,669.73,422.64Z"/><path class="cls-6" d="M697,436.32a2.28,2.28,0,0,1,4.07,2,2.28,2.28,0,0,1-4.07-2Z"/><path class="cls-6" d="M668.77,436a2.27,2.27,0,1,1,2.87,1.44A2.26,2.26,0,0,1,668.77,436Z"/><path class="cls-6" d="M697.74,426.4a2.28,2.28,0,1,1,2.88,1.44A2.27,2.27,0,0,1,697.74,426.4Z"/><path class="cls-6" d="M677.55,446.18a2.27,2.27,0,1,1,3.06-1A2.28,2.28,0,0,1,677.55,446.18Z"/><path class="cls-6" d="M691.23,418.88a2.27,2.27,0,1,1,3.06-1A2.28,2.28,0,0,1,691.23,418.88Z"/><path class="cls-6" d="M678.44,421.7a2.27,2.27,0,1,1-.37,3.19A2.28,2.28,0,0,1,678.44,421.7Z"/><path class="cls-6" d="M689.56,435.73a2.27,2.27,0,1,1-.37,3.2A2.29,2.29,0,0,1,689.56,435.73Z"/><path class="cls-6" d="M674.26,429.2a2.28,2.28,0,1,1,2,2.53A2.27,2.27,0,0,1,674.26,429.2Z"/><path class="cls-6" d="M692.05,431.27a2.27,2.27,0,1,1,2,2.52A2.27,2.27,0,0,1,692.05,431.27Z"/><path class="cls-6" d="M676.61,437.47a2.27,2.27,0,1,1,3.2.37A2.28,2.28,0,0,1,676.61,437.47Z"/><path class="cls-6" d="M690.65,426.35a2.27,2.27,0,1,1,3.19.37A2.27,2.27,0,0,1,690.65,426.35Z"/><path class="cls-6" d="M684.12,441.65a2.27,2.27,0,1,1,2.52-2A2.27,2.27,0,0,1,684.12,441.65Z"/><path class="cls-6" d="M686.18,423.87a2.28,2.28,0,1,1,2.52-2A2.28,2.28,0,0,1,686.18,423.87Z"/><rect class="cls-8" x="-2.64" y="554.36" width="843.42" height="39.96"/></svg>