<svg id="Layer_2" data-name="Layer 2" xmlns="http://www.w3.org/2000/svg" viewBox="0 0 242.1 191.07"><defs><style>.cls-1{fill:#ed1651;fill-rule:evenodd;}</style></defs><path class="cls-1" d="M121.27,91.85s-3.38-11.85-18-25.62S85.47,28.49,99.84,18.76s31.44,9.43,31.44,9.43,21.52-13.42,32.43.08.79,35.46-17.16,44.39S121.27,91.85,121.27,91.85Z"/><path class="cls-1" d="M117.37,95.31s-11.85,3.39-25.62,18S54,131.12,44.28,116.75,53.7,85.31,53.7,85.31s-13.41-21.52.09-32.43S89.25,52.09,98.18,70,117.37,95.31,117.37,95.31Z"/><path class="cls-1" d="M120.83,99.22s3.38,11.85,18,25.62,17.86,37.74,3.48,47.47-31.43-9.43-31.43-9.43-21.52,13.41-32.44-.08-.78-35.46,17.17-44.39S120.83,99.22,120.83,99.22Z"/><path class="cls-1" d="M124.74,95.76s11.84-3.39,25.62-18S188.1,60,197.83,74.32s-9.43,31.44-9.43,31.44,13.41,21.52-.08,32.43-35.46.79-44.4-17.16S124.74,95.76,124.74,95.76Z"/></svg>