<svg xmlns="http://www.w3.org/2000/svg" viewBox="0 0 132.48 127.21"><defs><style>.cls-1{fill:#cf6eab;stroke:#010101;stroke-linecap:round;stroke-linejoin:round;stroke-width:2.94px;}.cls-2{fill:#f69284;stroke:#231f20;stroke-miterlimit:10;}</style></defs><g id="Layer_2" data-name="Layer 2"><g id="Layer_1-2" data-name="Layer 1"><path class="cls-1" d="M63.2,60.85S34.71,53.76,23.34,44.93c-5.12-4-10.81-9.52-10.2-16.33.62-7,6.57-11.57,19.25-12.31C37,4.46,43.16.21,50.05,1.79c6.66,1.52,10.17,8.64,12.37,14.75,4.89,13.53,2.83,42.83,2.83,42.83Z"/><path class="cls-1" d="M63.37,65.15s-15.55,24.91-27.46,33c-5.37,3.64-12.4,7.34-18.68,4.66-6.5-2.77-9-9.83-5.77-22.11-9.82-8-12-15.22-8.33-21.28,3.51-5.86,11.37-7,17.85-7.21,14.39-.47,41.61,10.55,41.61,10.55Z"/><path class="cls-1" d="M67.51,66.32S86.39,88.81,90.4,102.63c1.8,6.23,3.14,14.06-1.35,19.21-4.64,5.32-12.12,5.5-22.81-1.35-10.69,6.85-18.16,6.67-22.81,1.35-4.49-5.15-3.15-13-1.34-19.21C46.09,88.81,65,66.32,65,66.32Z"/><path class="cls-1" d="M69.9,62.74s27.22-11,41.6-10.54c6.49.21,14.35,1.35,17.86,7.21,3.63,6.06,1.49,13.23-8.34,21.28,3.22,12.28.74,19.34-5.76,22.11-6.29,2.68-13.31-1-18.68-4.66-11.91-8.08-27.47-33-27.47-33Z"/><path class="cls-1" d="M67.24,59.37s-2.06-29.3,2.82-42.83c2.2-6.11,5.72-13.23,12.38-14.75,6.89-1.58,13,2.67,17.66,14.5,12.68.74,18.62,5.27,19.25,12.31.6,6.81-5.08,12.35-10.21,16.33C97.78,53.76,69.28,60.85,69.28,60.85Z"/><path class="cls-2" d="M76.79,70.55a13,13,0,1,1-2.88-18.21A13,13,0,0,1,76.79,70.55Z"/></g></g></svg>