<svg id="Layer_2" data-name="Layer 2" xmlns="http://www.w3.org/2000/svg" viewBox="0 0 242.1 191.07"><defs><style>.cls-1{fill:#fcd3c1;}.cls-1,.cls-2,.cls-3{fill-rule:evenodd;}.cls-2{fill:#ffcb05;}.cls-3{fill:#f58345;}</style></defs><path class="cls-1" d="M119,95.41s-6.5,1.86-14.06,9.85-20.71,9.81-26.06,1.92,5.18-17.26,5.18-17.26-7.36-11.81,0-17.8,19.47-.43,24.37,9.42S119,95.41,119,95.41Z"/><path class="cls-1" d="M120.93,97.56s1.86,6.5,9.85,14.06,9.8,20.71,1.91,26-17.25-5.17-17.25-5.17-11.81,7.36-17.8-.05-.43-19.46,9.42-24.36S120.93,97.56,120.93,97.56Z"/><path class="cls-1" d="M123.07,95.65s6.51-1.85,14.07-9.85,20.71-9.8,26.05-1.91S158,101.15,158,101.15,165.38,113,158,119s-19.46.43-24.36-9.42S123.07,95.65,123.07,95.65Z"/><path class="cls-1" d="M121.17,93.51s-1.85-6.5-9.85-14.06-9.8-20.71-1.91-26.05,17.25,5.17,17.25,5.17,11.82-7.36,17.81,0,.43,19.46-9.42,24.36S121.17,93.51,121.17,93.51Z"/><path class="cls-2" d="M124,75.79a20,20,0,1,1-22.68,16.8A20,20,0,0,1,124,75.79Z"/><path class="cls-3" d="M123.64,78.18a2.27,2.27,0,1,1-2.59,1.92A2.29,2.29,0,0,1,123.64,78.18Z"/><path class="cls-3" d="M110.61,81.44a2.27,2.27,0,1,1-.47,3.18A2.27,2.27,0,0,1,110.61,81.44Z"/><path class="cls-3" d="M128.79,106a2.27,2.27,0,1,1-.48,3.18A2.27,2.27,0,0,1,128.79,106Z"/><path class="cls-3" d="M103.7,93a2.27,2.27,0,1,1,1.92,2.59A2.28,2.28,0,0,1,103.7,93Z"/><path class="cls-3" d="M133.9,97.45a2.27,2.27,0,1,1,4.5.67,2.27,2.27,0,0,1-4.5-.67Z"/><path class="cls-3" d="M107,106a2.27,2.27,0,1,1,3.18.47A2.27,2.27,0,0,1,107,106Z"/><path class="cls-3" d="M131.49,87.8a2.28,2.28,0,1,1,3.18.47A2.28,2.28,0,0,1,131.49,87.8Z"/><path class="cls-3" d="M118.81,84.53A2.28,2.28,0,1,1,117,87.22,2.28,2.28,0,0,1,118.81,84.53Z"/><path class="cls-3" d="M122.39,102.08a2.28,2.28,0,1,1-1.78,2.68A2.27,2.27,0,0,1,122.39,102.08Z"/><path class="cls-3" d="M111.69,89.34a2.27,2.27,0,1,1,.64,3.15A2.28,2.28,0,0,1,111.69,89.34Z"/><path class="cls-3" d="M126.62,99.22a2.28,2.28,0,0,1,3.8,2.51,2.28,2.28,0,0,1-3.8-2.51Z"/><path class="cls-3" d="M110.05,97.78a2.28,2.28,0,1,1,2.68,1.77A2.29,2.29,0,0,1,110.05,97.78Z"/><path class="cls-3" d="M127.6,94.2A2.27,2.27,0,1,1,130.28,96,2.27,2.27,0,0,1,127.6,94.2Z"/><path class="cls-3" d="M114.86,104.9a2.27,2.27,0,1,1,3.15-.64A2.26,2.26,0,0,1,114.86,104.9Z"/><path class="cls-3" d="M124.74,90a2.27,2.27,0,1,1,3.15-.64A2.27,2.27,0,0,1,124.74,90Z"/></svg>