<svg id="Layer_2" data-name="Layer 2" xmlns="http://www.w3.org/2000/svg" viewBox="0 0 242.1 191.07"><defs><style>.cls-1{fill:#f48580;fill-rule:evenodd;}</style></defs><path class="cls-1" d="M119.21,93.46S111.1,89,96,89.37,66.43,78.79,68.9,66,90.65,54.25,90.65,54.25,95,35.66,108,37s19.29,18.46,14.49,32.76S119.21,93.46,119.21,93.46Z"/><path class="cls-1" d="M119,97.38s-4.5,8.1-4.08,23.19-10.58,29.59-23.41,27.12-11.72-21.75-11.72-21.75-18.59-4.32-17.21-17.31S81,89.34,95.31,94.14,119,97.38,119,97.38Z"/><path class="cls-1" d="M122.9,97.61s8.1,4.51,23.19,4.09,29.58,10.58,27.11,23.41-21.74,11.71-21.74,11.71-4.32,18.59-17.31,17.22-19.29-18.46-14.5-32.76S122.9,97.61,122.9,97.61Z"/><path class="cls-1" d="M123.13,93.69s4.51-8.1,4.08-23.19,10.58-29.59,23.41-27.11,11.72,21.74,11.72,21.74,18.59,4.32,17.22,17.31S161.1,101.73,146.8,96.93,123.13,93.69,123.13,93.69Z"/></svg>