<?xml version="1.0" encoding="utf-8"?>
<!-- Generator: Adobe Illustrator 26.0.1, SVG Export Plug-In . SVG Version: 6.00 Build 0)  -->
<svg version="1.1" id="Layer_1" xmlns="http://www.w3.org/2000/svg" xmlns:xlink="http://www.w3.org/1999/xlink" x="0px" y="0px"
	 viewBox="0 0 132.5 127.2" style="enable-background:new 0 0 132.5 127.2;" xml:space="preserve">
<style type="text/css">
	.st0{fill:#ED1651;stroke:#010101;stroke-width:2.94;stroke-linecap:round;stroke-linejoin:round;}
	.st1{fill:#F69284;stroke:#231F20;stroke-miterlimit:10;}
</style>
<g id="Layer_2_00000044898788233542199790000005749641198317639814_">
	<g id="Layer_1-2">
		<path class="st0" d="M63.2,60.9c0,0-28.5-7.1-39.9-15.9c-5.1-4-10.8-9.5-10.2-16.3c0.6-7,6.6-11.6,19.2-12.3
			C37,4.5,43.2,0.2,50,1.8c6.7,1.5,10.2,8.6,12.4,14.8c4.9,13.5,2.8,42.8,2.8,42.8L63.2,60.9z"/>
		<path class="st0" d="M63.4,65.2c0,0-15.5,24.9-27.5,33c-5.4,3.6-12.4,7.3-18.7,4.7c-6.5-2.8-9-9.8-5.8-22.1
			c-9.8-8-12-15.2-8.3-21.3c3.5-5.9,11.4-7,17.9-7.2c14.4-0.5,41.6,10.5,41.6,10.5L63.4,65.2z"/>
		<path class="st0" d="M67.5,66.3c0,0,18.9,22.5,22.9,36.3c1.8,6.2,3.1,14.1-1.3,19.2c-4.6,5.3-12.1,5.5-22.8-1.3
			c-10.7,6.8-18.2,6.7-22.8,1.3c-4.5-5.2-3.2-13-1.3-19.2C46.1,88.8,65,66.3,65,66.3H67.5z"/>
		<path class="st0" d="M69.9,62.7c0,0,27.2-11,41.6-10.5c6.5,0.2,14.3,1.3,17.9,7.2c3.6,6.1,1.5,13.2-8.3,21.3
			c3.2,12.3,0.7,19.3-5.8,22.1c-6.3,2.7-13.3-1-18.7-4.7c-11.9-8.1-27.5-33-27.5-33L69.9,62.7z"/>
		<path class="st0" d="M67.2,59.4c0,0-2.1-29.3,2.8-42.8c2.2-6.1,5.7-13.2,12.4-14.8c6.9-1.6,13,2.7,17.7,14.5
			c12.7,0.7,18.6,5.3,19.2,12.3c0.6,6.8-5.1,12.3-10.2,16.3c-11.4,8.8-39.9,15.9-39.9,15.9L67.2,59.4z"/>
		<path class="st1" d="M76.8,70.6c-4.2,5.8-12.4,7.1-18.2,2.8c-5.8-4.2-7.1-12.4-2.8-18.2c4.2-5.8,12.3-7.1,18.1-2.9
			C79.7,56.5,81,64.7,76.8,70.6C76.8,70.5,76.8,70.5,76.8,70.6z"/>
	</g>
</g>
</svg>
