<svg id="Layer_1" data-name="Layer 1" xmlns="http://www.w3.org/2000/svg" viewBox="0 0 457.95 502.27"><defs><style>.cls-1{fill:#687940;}.cls-2{fill:#d54d4b;}.cls-3{fill:#73834f;}.cls-4{fill:#72824d;}.cls-5{fill:#d55756;}.cls-6{fill:#758652;}.cls-7{fill:#7f8c5e;}.cls-8{fill:#b0b99e;}.cls-9{fill:#d87271;}.cls-10{fill:#94a079;}.cls-11{fill:#dd8c8b;}.cls-12{fill:#e1b9ba;}.cls-13{fill:#e7e7ea;}.cls-14{fill:#dbdcdf;}.cls-15{fill:#fdfdfd;}</style></defs><path class="cls-1" d="M220.52,430.35c.06-50.54-.47-101.08-1.89-151.6l1.22.05c4,58.82,4.34,117.69,2,176.58l-1.62-.07q.15-10.81.29-21.62A4.13,4.13,0,0,0,220.52,430.35Z"/><path class="cls-2" d="M347.17,124.47c-7.51,6.37-16.77,7.62-26,8.43-12.55,1.1-25.26-.16-37.73,2-22.94,4-43.56,12.59-59.15,30.76l-.39-1.9c4.74-7.23,11.41-12.42,18.59-16.92A105.26,105.26,0,0,1,299,130.5c10.92-.05,21.9.84,32.73-1.56,5.38-1.19,10.58-2.75,15-6.2C346.9,123.31,347,123.89,347.17,124.47Z"/><path class="cls-3" d="M266.28,281.75c-4.73-10.45-12.69-18.15-21.42-25.21-7-5.63-12.14-12.63-16.71-20.28-1.09-1.81,1.16-3.75-1.06-5.07,8.36,17.14,26.85,25.19,36.64,41.3-1.56-17.42,2.35-35.14-4-52.67,2.53.66,2.7,2.63,3.28,4.11,4,10.16,4.15,20.81,3.57,31.47-.47,8.81-.84,17.6.25,26.39Z"/><path class="cls-1" d="M230.74,440.55c-1.26-46.62-1-93.25-.14-139.87.08-4.65.19-9.29.3-13.94h.49l.49,0C233,338,233.5,389.18,231.8,440.38Z"/><path class="cls-2" d="M229.3,165.26c8.12-6.59,17.93-7.71,27.77-7.95s19.63.35,29.44.58c11.54.26,22.94-.65,34-4.22l1.28,1.17c-8.87,4.17-18.39,5.41-28,5.89-10.78.53-21.54-.09-32.31-.5s-21.55.36-31.3,5.91Z"/><path class="cls-2" d="M110.24,113.14c-3.2,14.09,2,25.14,12.77,33.84s24,12.73,37.32,15.81c5.18,1.19,10.4,2.17,15.61,3.25l-1.17,1.34c-16.3-2.17-32.54-4.59-47-13.29-11.07-6.67-18.71-15.76-20.26-29-.56-4.83-.35-9.6,2.4-13.9C110,111.81,110.13,112.47,110.24,113.14Z"/><path class="cls-4" d="M322.67,281.78c-.53,18.86,0,36.7-10.33,52.42-8.62,13.14-24.35,19.89-39.07,16.11,2.8,0,5.65.35,8.39-.06,16.1-2.38,26.75-11.63,32.59-26.59,4.53-11.61,5.32-23.91,6.39-36.15C320.78,286,320.23,284.18,322.67,281.78Z"/><path class="cls-2" d="M137.11,125c8,9.74,18.17,16.78,28.89,23.16,12.51,7.44,25.37,14.42,35.27,25.46,1.42,1.58,2.55,3.42,3.81,5.14l-1,1.13c-8.88-11.16-21-18-33-25.05-10.3-6-20.47-12.27-28.94-20.83a32.49,32.49,0,0,1-6.19-7.7Z"/><path class="cls-2" d="M273.17,121.79c6.87-6.59,15.26-10.86,23.49-15.37,1.82-1,4-1.37,5.25-3.34h0c9-2.82,16.89-7.53,22.5-15.22,4.26-5.83,4.73-12.23.7-18.58l1.73-.21c4.7,6.68,3.93,13.47,0,20-4.24,7.1-11,11.35-18.22,14.9-11.44,5.62-23.22,10.59-33.71,18Z"/><path class="cls-4" d="M266.28,281.75l.53,0a125.14,125.14,0,0,1,36.9-12.15l2.08,1c-11.41,3.52-23,6.43-33.65,12.21-13.64,7.41-22.61,18.26-25.36,33.8H245.1c1.15-13.14,7.71-23.28,17.58-31.57C263.94,284,265.52,283.33,266.28,281.75Z"/><path class="cls-2" d="M265.27,45.78c-13.42-12.63-28.93-18.63-47.45-14.68a37.72,37.72,0,0,0-20.8,12l-1.75-.19c9.23-12.57,22.07-17.35,37.06-16,13.56,1.24,25.1,7.13,33.74,18Z"/><path class="cls-2" d="M244.93,97.82a77.6,77.6,0,0,0-36.43,2c-9.56,2.9-19.24,5.09-29.26,5.53-3.17.13-6.31.25-9.25-1.24l.11-1.56c10,1.89,19.53-.57,28.85-3.42C212.28,95,225.62,92.38,239.57,95c1.79.33,3.55.81,5.33,1.22Z"/><path class="cls-5" d="M292.49,180.87c-10.81,23.07-40,32.26-69.92,25C249.6,208,274.46,204.15,292.49,180.87Z"/><path class="cls-2" d="M196.94,115.74c-9.74-.63-19.54-.36-29.12-2.77C158.49,110.63,150.69,106,145,98.2c-4.4-6-6.6-12.57-4.76-20.07l1.62,0c-.14.63-.28,1.26-.41,1.89l-.15,2.17c.05.85.11,1.71.16,2.56.12.44.24.89.35,1.34C146.55,101.6,158.59,108,173.19,111c8.8,1.82,17.77,2.43,26.71,3.15C199.34,115.44,197.68,114.75,196.94,115.74Z"/><path class="cls-2" d="M292.41,88.72C301.12,78,303.3,67,298.52,55.29c-5.44-13.23-15.91-20.42-29.9-22.42C276.91,29.1,294,39,300.3,51.29,306.77,63.91,303.36,82.59,292.41,88.72Z"/><path class="cls-2" d="M183.94,92.11c-12.61-6.54-22.69-15.54-27.11-29.46-4.57-14.43,1-22.6,16.18-24.28l.93,1.54C159.79,42,155.41,49,160.05,62.56,163.68,73.15,171,81,179.66,87.63c2,1.51,4.06,2.84,6.1,4.26Z"/><path class="cls-2" d="M216.91,139c-12.89-3.93-26.3-2.79-39.46-4.06-9.6-.93-19.08-2.43-27-8.73l2.37-.16c9.48,4.59,19.64,5.72,30,6.09,12.27.44,24.61.64,36.09,5.91C218.51,138.93,217.66,138.87,216.91,139Z"/><path class="cls-2" d="M227.94,113c12.09-5.49,25.06-6.16,38-6.77,9-.42,17.92-.61,26.77-2.28l2.16.09a8.93,8.93,0,0,0,.66.72c-7.79,3.3-16.1,3.68-24.36,4.23-14.88,1-29.83,1.35-44.18,6.12l-.43-1.42.12,0Z"/><path class="cls-4" d="M271.07,320.85c-15.59,17-25.07,37.28-32,59a1.19,1.19,0,0,0-.17.71v0l-1.58-.07c4.29-20.92,12.76-39.79,27.48-55.54,1.69-1.81,3.69-3.33,5.55-5C270.6,320.28,270.84,320.56,271.07,320.85Z"/><path class="cls-2" d="M249.7,54.82c-7.94-5.72-16.75-7-26.1-4.84-9.69,2.19-14.63,8.7-14.42,18.61,0,.76.46,1.63-.5,2.17-4-7.36.6-19.14,9.32-22.36,11.74-4.35,22.87-3,32.64,5.46Z"/><path class="cls-3" d="M218.83,228.82c-3.73,10.51-11.41,17.68-20.23,23.91-7.41,5.24-15.85,9.2-21.35,16.87-.08-.63-.17-1.25-.25-1.87,3.76-6.76,10.12-10.75,16.18-15,9.34-6.6,18.78-13.06,24-23.81Z"/><path class="cls-6" d="M309.62,385.75c-10.88,18.69-34.92,26.89-46.73,15.72C283.09,409.55,296.07,397,309.62,385.75Z"/><path class="cls-3" d="M182.13,217c-7.06,14.09-8,29.29-8,44.64,0,2,0,4,0,6-.43,1.3.19,2.83-.89,4-2.21-13.72-3-27.43.95-41,1.53-5.27,3.41-10.41,7-14.75Z"/><path class="cls-4" d="M279.3,215.15c17.77-1.32,35.43-6.07,53.38-2.6-16.44-.55-32.39,4.86-48.79,4.39-1.33,0-2.65-.1-4-.15C279.7,216.24,279.5,215.69,279.3,215.15Z"/><path class="cls-2" d="M219.86,75.14c-3-5.39-2.44-9.69,1.92-13.79,7.75-7.29,23.75-5.81,29.94,2.8.95,1.32,2.1,2.67.82,4.89-2.35-5.18-6.7-7.6-11.72-8.72A20.56,20.56,0,0,0,226.29,62c-5.18,2.75-6.62,6-5.13,11.86Z"/><path class="cls-3" d="M133.17,204.76c-1.91-2-4.4-2.33-7-2.95-8.37-2-14.88-6.58-18.16-14.92l2.07,0,0,0c-.29,1-.1,1.49,1,1l0,0c-.44,1.14-.09,1.48,1,1l0,0c-.6,1.95.18,2.52,2,2l0,0c1.07,3.9,4.47,4.89,7.67,6.14,6.85,3.48,13.48,2.32,19.93-1.08a69.82,69.82,0,0,1,9.15-4.59,30.78,30.78,0,0,1-16.27,10.43c-1.8.47-4.2.48-1.47,3.05Z"/><path class="cls-3" d="M311,373.19l-6-.17-1.38-.14c-5.57-.92-11.19-1.59-16.68-2.81-9.57-2.12-18.71-2.57-26.49,5.07,2.69-5.77,8.71-9.17,16-9.39,7.95-.24,15.36,2.48,22.95,4.23a64.29,64.29,0,0,0,11.28,1.86C310.82,372.29,310.93,372.74,311,373.19Z"/><path class="cls-2" d="M205.8,206.63c-17.76-1.86-31.18-10.23-39.17-26.78,10.35,13.42,23.5,22.24,40.26,25.11Z"/><path class="cls-6" d="M342.1,213c.2.59.39,1.19.58,1.79H341c-2-5.3-6.45-7.82-11.17-10.05-6.66-3.16-13.88-4.56-20.92-6.49-2.64-.73-5.35-1.31-7.54-3.21,12.77,2.13,26.18,2.26,36.57,11.74,1.56,1.42,2.6,3.42,3.88,5.15C341.89,212.26,342,212.61,342.1,213Z"/><path class="cls-4" d="M179.71,207.39c-14,9.16-28,8.11-42.18.88,7,1,13.83,2.85,21,2.75A77.33,77.33,0,0,0,179.71,207.39Z"/><path class="cls-5" d="M222,87.55c-8.07-1.86-16.27-3.28-23.7-7.24-3.56-1.9-6.89-4.09-8.86-7.74-1.25-2.32-2.35-4.78.49-7.85-.54,7.67,4.3,10.68,9.54,13.43,7.11,3.72,15,5.37,22.46,8C222,86.6,222,87.08,222,87.55Z"/><path class="cls-5" d="M243.66,87.36c5.27-4,11.48-5.14,17.43-7.06a71.61,71.61,0,0,0,7.06-2.42c5.79-2.55,7.06-4.76,6.5-11.94,3.38,4.33,2.22,7.5-.19,10.36A16.77,16.77,0,0,1,266,81.36C258.58,83.47,251.1,85.38,243.66,87.36Z"/><path class="cls-5" d="M267.35,95.74c5.23-1.74,9.54-2.9,13.63-4.58,8.07-3.32,9.91-8.08,6.53-15.93,5,3.18,5,10.27,0,14.94C283.74,93.64,274.32,96.47,267.35,95.74Z"/><path class="cls-7" d="M211.34,409.15c3.89,2.74,5.77,5.57,6.47,9.6l-3.09-1.25c1.38,5.41,2.69,10.45,2.79,15.71C213.51,426.08,212.43,418.19,211.34,409.15Z"/><path class="cls-5" d="M137.11,125l-1.19,1.31c-5.5-8.27-10.28-16.68-5.82-25.68C128.26,109,132.21,117.1,137.11,125Z"/><path class="cls-5" d="M240.81,77.67c1.28-1.82,3.53-2.74,1.89-4.66-1.86-2.19-4.66-2.52-7.31-2.36-2.83.16-3.18,2.38-3,4.87-1-3.49-1.4-6.64,3.26-7.19,3.85-.45,7.53.34,9.27,4.17C246.15,75.27,244,76.69,240.81,77.67Z"/><path class="cls-3" d="M250.49,386.66h23.69C269.45,389.74,260.69,390,250.49,386.66Z"/><path class="cls-8" d="M230.74,440.55l1.06-.17v26.84l-1.35,0C230.33,458.36,229.31,449.5,230.74,440.55Z"/><path class="cls-9" d="M347.17,124.47c-.13-.58-.27-1.16-.4-1.73,4.08-6.14,4.29-9.31,1.31-19.21C353.77,108,353.29,118.91,347.17,124.47Z"/><path class="cls-6" d="M109.68,183.35l9.48,7.9c1.14,1,2.4,1.84,2,3.65-2.59-.92-4.14-3.69-7.07-4l0,0c0-1.4-.82-1.9-2-2l0,0c0-.74-.27-1.12-1-1l0,0c0-.74-.24-1.15-1-1l0,0-1.25-2.82Z"/><path class="cls-8" d="M220.22,455.31l1.62.07a61,61,0,0,1-1.62,20.16Z"/><path class="cls-10" d="M219.85,278.8l-1.22-.05c-1.6-7.68,0-15.52-1.14-23.22l1.35.44C218.63,263.6,220.47,271.15,219.85,278.8Z"/><path class="cls-9" d="M170.1,102.54,170,104.1c-8.07-3.51-10.43-10.54-5.15-15.38C161.8,94.55,163.17,98.15,170.1,102.54Z"/><path class="cls-5" d="M223.89,163.75l.39,1.9-1.41,3.24.07,0c-1,.33-1.22,1.22-1.53,2-1.38,1.06-.84,2.85-1.58,4.15-.53.56-1.06,1.13-1.58,1.7l-1.31,1.18C217.57,172.38,220.54,168,223.89,163.75Z"/><path class="cls-9" d="M295.76,102.94c5.06-2.49,9.49-5.44,8.32-13.35,2.89,4.24,1.33,6.84-.18,9.55-.71,1.27-3,1.79-2,3.93h0c-1.15-1.46-2.31.65-3.47,0Z"/><path class="cls-9" d="M244.93,97.82l0-1.65a40,40,0,0,1,14.89,6.18Z"/><path class="cls-9" d="M326.85,69.06l-1.73.21a45.65,45.65,0,0,0-11.31-8.81C319.38,61.4,323.51,64.62,326.85,69.06Z"/><path class="cls-11" d="M141.82,78.16l-1.62,0c1.59-6.34,4.79-11.08,11.85-12l0,0A19,19,0,0,0,141.82,78.16Z"/><path class="cls-12" d="M215.64,185.51v13.74A15.15,15.15,0,0,1,215.64,185.51Z"/><path class="cls-10" d="M173.22,271.65c1.08-1.16.46-2.69.89-4,.87,3.41,1.9,1,2.89.07.08.62.17,1.24.25,1.87-.75,2.76-1.51,5.52-2.26,8.28l-.69.11Z"/><path class="cls-11" d="M174.77,167.38l1.17-1.34a32,32,0,0,1,14,5.9l0-.05Z"/><path class="cls-9" d="M219.86,75.14l1.3-1.31c2.51,3.13,6,5,9.39,6.94C226.26,80.22,222.18,79.36,219.86,75.14Z"/><path class="cls-9" d="M321.8,154.84l-1.28-1.17a76.23,76.23,0,0,0,11.75-7.3l.73.73A26.35,26.35,0,0,1,321.8,154.84Z"/><path class="cls-10" d="M218.83,228.82l-1.67.07,4.09-12.76C221.05,221.24,220.66,225.16,218.83,228.82Z"/><path class="cls-11" d="M210.57,188.86c2.8,3.83,2,8.49,2.67,12.82q-2-6.45-4-12.89Z"/><path class="cls-13" d="M114.08,190.88c2.93.33,4.48,3.1,7.07,4,1,.18,2.21-.64,3,.58L121.75,197C118.55,195.77,115.15,194.78,114.08,190.88Z"/><path class="cls-14" d="M218.84,256l-1.35-.44c-1.19-4.9-.35-9.81,0-14.74C217.42,245.91,219.65,250.79,218.84,256Z"/><path class="cls-8" d="M341,214.77h1.71a11.18,11.18,0,0,1-.84,7.49C341.36,219.74,337.48,217.77,341,214.77Z"/><path class="cls-11" d="M196.94,115.74c.74-1,2.4-.3,3-1.62,3.45-.45,6.58.71,9.83,1.25,0,.44-.1.88-.14,1.32Z"/><path class="cls-9" d="M216.91,139c.75-.14,1.6-.08,2-.95a18.16,18.16,0,0,1,9.24,6.85Z"/><path class="cls-11" d="M219.83,175.06c.74-1.3.2-3.09,1.58-4.15,1.55.09,1.94-.68,1.53-2l-.07,0c1.4.91,2.08-.61,3.12-.93,0,.37,0,.75,0,1.13-.76,2.8-3.14,4.5-4.7,6.76C220.35,177.19,219.75,176.39,219.83,175.06Z"/><path class="cls-7" d="M237.33,380.51l1.58.07q-1.08,4.95-2.17,9.89C235.57,387,236.4,383.73,237.33,380.51Z"/><path class="cls-9" d="M195.27,42.94l1.75.19-6,10.39A17.62,17.62,0,0,1,195.27,42.94Z"/><path class="cls-5" d="M210.57,188.86l-1.33-.07q-2.58-4.47-5.15-8.93l1-1.13A31.28,31.28,0,0,1,210.57,188.86Z"/><path class="cls-5" d="M152.84,126.06l-2.37.16c-3.6-1.78-5.48-5-7.23-8.42l.95-.66A25,25,0,0,0,152.84,126.06Z"/><path class="cls-5" d="M226.55,113.64l.43,1.42-8.46,4.4c-.21-.18-.41-.37-.63-.55A18.61,18.61,0,0,1,226.55,113.64Z"/><path class="cls-14" d="M338,95.79l-10.69-3.07C332.14,91.86,334,92.3,338,95.79Z"/><path class="cls-7" d="M267.35,215.22a19.69,19.69,0,0,1,10.07.53C274,217.71,270.67,216.15,267.35,215.22Z"/><path class="cls-9" d="M173.94,39.91,173,38.37a15.64,15.64,0,0,1,10.11,1.54Z"/><path class="cls-9" d="M273.17,121.79l1.74.2-7,7,.07.1C268,125.41,270.81,123.76,273.17,121.79Z"/><path class="cls-10" d="M305.79,270.63l-2.08-1,9.75-3.28.56.56C311.66,269,308.74,269.86,305.79,270.63Z"/><path class="cls-11" d="M222,87.55c0-.47-.05-1-.07-1.42,3,.35,5.51,1.82,8.12,3.19A16.9,16.9,0,0,1,222,87.55Z"/><path class="cls-8" d="M246.8,324.63q.6,4.55,1.22,9.07c-2.49-2.61-2.5-5.9-3-9.06Z"/><path class="cls-10" d="M246.8,324.63h-1.75c0-2.66,0-5.33,0-8h1.68Z"/><path class="cls-12" d="M205.8,206.63l1.09-1.67h7.61C211,207.65,208.39,207,205.8,206.63Z"/><path class="cls-10" d="M322,270.81c-.26-2.62-.19-5.21,1.4-7.69-.24,2.57-.47,5.13-.71,7.7Z"/><path class="cls-12" d="M143.24,117.8c-1.57-2.79-2.2-5.49.81-7.81l0,0c0,2.37.07,4.75.11,7.12Z"/><path class="cls-11" d="M216.94,177.94l1.31-1.18c3.56,1.65.11,3.84.38,5.76Z"/><path class="cls-11" d="M255.46,64.68a15.2,15.2,0,0,1-2.41-7.05C255.42,59.64,255.65,61.76,255.46,64.68Z"/><path class="cls-10" d="M231.88,286.77l-.49,0h-.49c-.76-1.71-.63-3.42.11-5.58C232.69,283.08,231.94,285,231.88,286.77Z"/><path class="cls-11" d="M270.17,49.87a9.39,9.39,0,0,1,2.91,6.88l-3.79-6.11Z"/><path class="cls-11" d="M183.94,92.11l1.82-.22c2,.58,4.18,1,5.2,3.19l0-.07A11.74,11.74,0,0,1,183.94,92.11Z"/><path class="cls-8" d="M311,373.19c-.11-.45-.22-.9-.32-1.35a10,10,0,0,1,5.19.19A4.16,4.16,0,0,1,311,373.19Z"/><path class="cls-11" d="M110.24,113.14c-.11-.67-.21-1.33-.32-2,.35-2.23,1.84-3.56,3.67-4.62.22.24.46.47.7.69Z"/><path class="cls-4" d="M322,270.81h.69c0,2.28.05,4.57.07,6.86,0,.68-.29,1.53-1,1.26-.85-.33-.66-1.35-.49-2.16.11-.44.22-.88.34-1.32Z"/><path class="cls-7" d="M182.13,217l-1-1.14a9.74,9.74,0,0,1,3.78-4.16,4.64,4.64,0,0,0,.69.64Z"/><path class="cls-2" d="M226,169.09c0-.38,0-.76,0-1.13l3.31-2.69.87.87C229,167.4,227.86,168.79,226,169.09Z"/><path class="cls-11" d="M250.64,53.86c1.38.51,1.8,1.73,2.65,3.44-2.11-.18-2.84-1.34-3.59-2.48Z"/><path class="cls-5" d="M218.52,119.46l-2.69,1.79c.65-1.25.89-2.23,2.06-2.34C218.11,119.09,218.31,119.28,218.52,119.46Z"/><path class="cls-6" d="M106.91,182.26c-.18-.28-.46-.55-.5-.84-.09-.71.32-.92.83-.47.86.75,1.63,1.6,2.44,2.4l-.81.75Z"/><path class="cls-13" d="M106.91,182.26l2,1.84,1.25,2.82-2.07,0,0,.06c.1-1.56-1-2.37-2-3.23Z"/><path class="cls-3" d="M106.09,183.72c1,.86,2.11,1.67,2,3.23C106.49,186.46,105.42,185.63,106.09,183.72Z"/><path class="cls-9" d="M332.27,146.37l3.57-3.4,0,0c.3,2.22-1.51,3-2.81,4.17Z"/><path class="cls-11" d="M269.29,50.64c-.7-.49-1.38-1-1.4-2,0-.55.05-1.1.08-1.65a4.93,4.93,0,0,1,2.2,2.84Z"/><path class="cls-9" d="M267.89,128.94c-.11.8-.43,1.43-1.31,1.56-.05,0-.25-.29-.21-.36.34-.63.54-1.5,1.59-1.1Z"/><path class="cls-11" d="M113.59,106.52c.64-.6,1.17-2,2.18-.9.4.43-.68,1.3-1.48,1.59C114.05,107,113.81,106.76,113.59,106.52Z"/><path class="cls-2" d="M268,47c0,.55-.05,1.1-.08,1.65l-2.62-2.9.8-.81Z"/><path class="cls-11" d="M191,95.08l2.48.21A1.56,1.56,0,0,1,191,95Z"/><path class="cls-8" d="M220.52,430.35a4.13,4.13,0,0,1,0,3.34A2.85,2.85,0,0,1,220.52,430.35Z"/><path class="cls-2" d="M295.76,102.94l2.68.13c-.62,1.18-1.88,1.22-2.92,1.64a8.93,8.93,0,0,1-.66-.72q0-.42.06-.84A1.74,1.74,0,0,1,295.76,102.94Z"/><path class="cls-9" d="M294.92,103.15q0,.42-.06.84l-2.16-.09Z"/><path class="cls-7" d="M186,210.84c.44-.86,1-1.41,2.08-.93l-.1-.07a1.56,1.56,0,0,1-1.58,1.25Z"/><path class="cls-11" d="M141.26,82.22l.15-2.17A1.92,1.92,0,0,1,141.26,82.22Z"/><path class="cls-11" d="M190,171.94l.95.47c-.12,0-.29.13-.34.08a6.5,6.5,0,0,1-.57-.6Z"/><path class="cls-11" d="M152.05,66.09l.7-.49-.36.25-.38.2Z"/><polygon class="cls-7" points="217.89 434.95 217.89 435.06 218.24 435 217.89 434.95"/><path class="cls-8" d="M248.3,336.26c.11,0,.27,0,.3,0a.59.59,0,0,1,.08.42c-.2.47-.4.44-.49-.06C248.16,336.54,248.26,336.39,248.3,336.26Z"/><path class="cls-4" d="M272.09,319.86l-1,1c-.23-.29-.47-.57-.71-.85l1.07-1Z"/><path class="cls-4" d="M271.43,319c.43,0,1.09-.23,1.23,0,.39.52-.18.69-.57.86Z"/><path class="cls-3" d="M133.09,204.83l.67.48c-.75.4-.54-.21-.59-.55Z"/><path class="cls-7" d="M238.92,380.54a1.19,1.19,0,0,1,.17-.71A.47.47,0,0,1,238.92,380.54Z"/><path class="cls-9" d="M302.88,88.07l.41.43c-.08,0-.18-.06-.22-.12a2.24,2.24,0,0,1-.14-.36Z"/><path class="cls-11" d="M141.77,86.12c-.11-.45-.23-.9-.35-1.34C141.54,85.22,141.66,85.67,141.77,86.12Z"/><path class="cls-10" d="M321.63,275.46c-.12.44-.23.88-.34,1.32C321.4,276.34,321.51,275.9,321.63,275.46Z"/><path class="cls-7" d="M279.3,215.15c.2.54.4,1.09.61,1.64-.58,0-1.25.05-1.3-.69C278.59,215.8,279.06,215.46,279.3,215.15Z"/><path class="cls-9" d="M335.84,143l.53-.67.18.43-.74.2Z"/><path class="cls-8" d="M303.7,372.88l1.38.14C304.57,373.49,304.12,373.37,303.7,372.88Z"/><path class="cls-10" d="M316.48,265.12c0,.09,0,.21,0,.26s-.19.1-.29.14l0-.55Z"/><path class="cls-7" d="M188.08,209.91l.13-.73c.88.55,0,.48-.23.66Z"/><path class="cls-9" d="M302.93,88l-.31-.14.26.19Z"/><path class="cls-5" d="M227.94,113l-1.27.72Z"/><path class="cls-7" d="M186.4,211.09c-.27.43-.54.86-.8,1.29a4.64,4.64,0,0,1-.69-.64l1.09-.9Z"/><path class="cls-12" d="M144.05,110l.49-.45c0,.11,0,.26-.06.32a1.21,1.21,0,0,1-.4.17Z"/><path class="cls-8" d="M342.1,213l-.31-1.06a4.83,4.83,0,0,1,.44.67C342.28,212.67,342.15,212.83,342.1,213Z"/><path class="cls-10" d="M313.46,266.36c.42-.41.85-.79,1.41-.19l-.85.75Z"/><path class="cls-13" d="M112.08,188.87c1.21.14,2.07.64,2,2C112.26,191.39,111.48,190.82,112.08,188.87Z"/><path class="cls-13" d="M110.08,186.88c.8-.11,1.08.3,1,1C110,188.37,109.79,187.86,110.08,186.88Z"/><path class="cls-13" d="M111.08,187.87c.77-.07,1.08.31,1,1C111,189.35,110.64,189,111.08,187.87Z"/><path class="cls-15" d="M222.94,168.86c.41,1.37,0,2.14-1.53,2C221.72,170.08,222,169.19,222.94,168.86Z"/></svg>