<svg id="Layer_1" data-name="Layer 1" xmlns="http://www.w3.org/2000/svg" viewBox="0 0 457.95 502.27"><defs><style>.cls-1{fill:#d54d4b;}.cls-2{fill:#d87271;}.cls-3{fill:#758652;}.cls-4{fill:#72824d;}.cls-5{fill:#73834f;}.cls-6{fill:#7f8c5e;}.cls-7{fill:#d55756;}.cls-8{fill:#b0b99e;}.cls-9{fill:#dd8c8b;}.cls-10{fill:#94a079;}.cls-11{fill:#e1b9ba;}.cls-12{fill:#dbdcdf;}.cls-13{fill:#fdfdfd;}</style></defs><path class="cls-1" d="M370.26,170.15c-.35.27-.89.47-1,.82-4.28,12.14-13.77,17.3-25.7,19.16-13.68,2.12-27.19-.7-40.77-1.44a55.3,55.3,0,0,1-8.75-1.13c9.34-.9,18.67-.38,28,0,8.66.35,17.32.58,25.81-1.47,11.13-2.7,18.71-9.06,20.6-20.93l1.83-2v3c-1.08,1-1.51,2,0,3Z"/><path class="cls-2" d="M370.26,163.16l-1.83,2a31.83,31.83,0,0,0-1.8-9.95c2.78.37,1.89,3.24,3.63,3.95Z"/><path class="cls-2" d="M370.26,169.15c-1.51-1-1.08-2,0-3Z"/><path class="cls-3" d="M269.44,308.05A170.38,170.38,0,0,0,237,390.61c-1.7,14.82-1,29.9-1.49,44.86-.05,1.56.47,3.25-1,5.28-1.31-54.2-1.32-107.8.6-161.4,1.58,33,1.58,66,1.86,99,1.85-7.92,3.12-15.95,5.48-23.73,5.37-17.69,13-34.16,25.91-47.72Z"/><path class="cls-4" d="M224.25,281a1444.31,1444.31,0,0,1,1,167.62l-1,.14c-.09-33.53,0-67.05-.32-100.57-.18-22.4-.83-44.79-1.28-67.19Z"/><path class="cls-1" d="M202.75,149.75a115.65,115.65,0,0,1,23.6.57c0,.25,0,.5,0,.74-12.46-.29-24.87,1-37.31,1.23-20.69.42-40.73-2.66-59.4-12-11.66-5.83-21.13-13.79-23.56-27.61l1.35-1.38c2,10.09,8,17.27,16.53,22.56,15.44,9.64,32.81,13,50.5,15.21l2,.22c.33.45.7.5,1.09.07,7.21.77,14.43.56,21.65.5A5.19,5.19,0,0,0,202.75,149.75Z"/><path class="cls-1" d="M149.51,165l-3-.13-1.47-.28-1.11-.13c-4-.29-7.85-1.94-11.93-.92l-1.45-.28a1.93,1.93,0,0,0-2.47-.76c-11.55-1.94-22.65-5-31.5-13.31.37-.36.75-.71,1.13-1.06,12.14,9.26,26.49,11.77,41.13,13.08,24.88,2.24,49.74-.17,74.62-.63l5-.12a1.15,1.15,0,0,0,2-.05c1.53-.07,3.14-.61,5.84,1.53-25.8,1.54-50.2,3.89-74.77,3.1C150.87,164.18,150.2,164.15,149.51,165Z"/><path class="cls-1" d="M154.67,88.5c3,24,19.07,36.23,40,43.65,16.52,5.84,33.55,8,51.86,4.95-3,2.62-6.13,2.56-8.82,2.78C216,141.62,195.2,138.52,176.33,127c-18.42-11.29-26.75-30-22.65-49.63l1.75,0-.84,9.84C154.62,87.6,154.64,88.05,154.67,88.5Z"/><path class="cls-1" d="M220.84,27.56c-.32.38-.6.34-.85-.07l-2.8,0C202,27,186.9,28.14,172.7,34.18c-20.86,8.88-36.18,22.76-40.24,46.32,0,.25-.38.45-.69.8-1.44-.6-.89-1.81-.77-2.8,2.14-17.24,11.76-29.81,25.59-39.25,20.31-13.86,43-16.55,66.81-12.81C222.79,27.37,221.79,27.41,220.84,27.56Z"/><path class="cls-1" d="M225.42,50.31c13.33-6.32,26.55-5.79,38.93,2,15.45,9.69,16.83,32.16,3.13,44.19a39,39,0,0,1-13.63,8l-1.41-1.1c2.3-1.33,4.64-2.59,6.9-4,11.67-7.22,16.37-17.06,13.82-28.86C270.67,59,261.39,51.08,248.38,49.29a42.93,42.93,0,0,0-23.86,3.3l-.36-1.53,0,0C224.6,50.85,225,50.58,225.42,50.31Z"/><path class="cls-1" d="M245.33,193c-21,8.63-41.5,6.53-61.82-2.36-1.79-.78-3.45-2.65-5.8-1.48l-.05,0c.31-2-1.51-2-2.5-2.45-8.3-4.16-15.83-9.55-23.59-14.57.33-.84,1.08-.8,1.79-.85,9,5,17.69,10.41,27.06,14.7,20.57,9.4,41.61,13.19,63.7,6Z"/><path class="cls-1" d="M202.33,43.1c-24.19,8.21-29.94,33.73-12.1,53.71,5.38,6,12.27,10.16,18.55,15.07,2.66,2.08,5.57,3.92,7.23,7.12-10.43-8.23-23.31-13.24-31.43-24.44-11.77-16.22-9.81-36.21,4.66-47.22a26.33,26.33,0,0,1,10.2-5C200.43,42.5,201.56,42.11,202.33,43.1Z"/><path class="cls-1" d="M321.67,83.66c9.34,11.42,8.94,26.82-.93,37.59-5.26,5.75-11.82,9.56-18.88,12.55a141.83,141.83,0,0,1-34.35,9.44,1.44,1.44,0,0,0-.89.13l-2.22.59c0-.55,0-1.1,0-1.65,11.05-3.06,22.27-5.52,32.9-10,5.85-2.45,11.55-5.14,16.61-9,13.38-10.27,15.77-24,6.8-38.71Z"/><path class="cls-4" d="M274.61,335.31c16.48,2.21,31.69-6.07,39.7-21.65,6.22-12.11,7.67-25.36,8.9-38.62.64-7,.85-13.94,1.26-20.91l1.58.05c-.46,15.94.26,32-3.87,47.61-4.52,17-14.14,29.49-31.81,34.49-5.27,1.49-10.56.88-15.86.41C274.55,336.23,274.58,335.77,274.61,335.31Z"/><path class="cls-1" d="M295.12,154.44l-20.68.59,0-1.77c19.37-1.45,38.87-1.45,58.06-5a81.6,81.6,0,0,0,8.72-2c10.77-3.22,20.28-7.92,22.22-20.61,2.49.59,1.71,2.12,1.5,3.25-1.42,7.65-6.3,12.6-12.83,16.2-7.4,4.08-15.48,5.85-23.72,7.12l-2.85.29-2.13.42c-.41-.44-.78-.36-1.12.09a202.41,202.41,0,0,1-23.74,1.34Z"/><path class="cls-1" d="M277.35,29.71l4.69.43,1.52.09c14.38,1.38,27.61,5.89,38.93,15C335.83,56,341.88,69.81,339.11,87l-1.25-.81c1.92-15.67-4.5-27.9-16.16-37.56-13.22-11-28.84-16.09-45.83-17.25-3.8-.26-7.63-.15-11.44-.2,0-.24,0-.47,0-.7l8.95-.85A3,3,0,0,0,277.35,29.71Z"/><path class="cls-4" d="M304.3,249.89c-6.86,2.44-13.88,4.37-20.62,7.22-20.65,8.72-36.44,25.72-35.7,52.24a41.4,41.4,0,0,1,.85-20.46c2-7,6.13-12.8,9.89-18.84l.63-.72,1.1-1.33,0,.06c12.25-10.53,26.5-16.69,42.35-19.37Z"/><path class="cls-1" d="M289.31,67.32c12.45,15.43,10.71,35.69-4.4,48.85-9.27,8.09-20.45,12-32.45,13.79,0-.56,0-1.13,0-1.69a87.79,87.79,0,0,0,20.1-7.24c18.18-9.43,30.37-29.23,15.74-52.56Z"/><path class="cls-1" d="M91.86,173.47c0,16.26,9,25,25.16,23.87,12.43-.84,24.23-5.12,36.48-7l1,1.65c-12.2,3-24.11,7.38-36.71,8.59-17.94,1.72-29.56-10.57-27-28.37Z"/><path class="cls-1" d="M219.56,74.24l.09-1.94c.95-.8.84-1.88.81-3,4.27-8.64,12.89-12.66,23.32-10.87,8.39,1.44,14.18,7.2,15,15,.72,6.73-2.12,11.93-7.17,16.07-2,1.67-4.3,3.08-6.45,4.61L244.12,93l0,.06,1.17-1c2.38-2.31,5-4.4,7.09-7,6.71-8.26,3.69-18.94-6.25-22.73-11-4.21-22.11.64-24.93,10.92Z"/><path class="cls-1" d="M265.32,192.33l-3.19.48c.12-.53.25-1.05.37-1.58,9.19-1.14,17-5.58,24.35-10.74,9.93-7,19.62-14.25,29.41-21.39l1.1,1.11c-9.25,7.44-17.79,15.78-27.86,22.19-7.15,4.56-14.65,8.29-23.08,9.82Z"/><path class="cls-3" d="M264.51,391.18a2.41,2.41,0,0,1,2.6,0c8.78,5.27,17.25,3.18,25.49-1.24,8.73-4.68,15.6-11.62,22.48-18.57-6.11,10.4-14,18.94-25.59,23.44C280.61,398.24,272.18,397.75,264.51,391.18Z"/><path class="cls-3" d="M259.35,260c.7-9.49,3.75-18.47,6-27.62,2.42-9.9,5-19.78,1.89-30.1,3.67,4.78,3.67,10.32,3.51,15.83-.28,9.38-3.1,18.24-5.81,27.12-1.69,5.54-3.17,11.14-4.75,16.71Z"/><path class="cls-1" d="M196.49,67.34c-1.3,7.38,1.3,13.43,6.51,18.47,3.94,3.82,8.06,7.46,12.09,11.18s8.07,7.37,10.19,13.41c-7.6-9.17-17.78-14.64-25.22-23.15-5.56-6.37-8.62-13.46-4.57-21.93C196.4,65.7,196.35,66.57,196.49,67.34Z"/><path class="cls-3" d="M263.64,360.24c6.36-8.45,15.12-8.64,24.3-6.85,9.74,1.9,19.05,5.88,29.18,5.88h2.31c-6.55,2.21-12.24,1-17.85.15-5.24-.82-10.39-2.16-15.59-3.18-7.83-1.54-15.21-.95-21.41,4.81Z"/><path class="cls-4" d="M183.06,252.93c11.16-15,30.52-21.79,39.14-39.43C216,233.35,197.24,240.86,183.06,252.93Z"/><path class="cls-5" d="M227.2,213.27c3,10.23,9.7,18,16.73,25.65,5.53,6,11,12.05,13.45,20.11l-.76,1.86c-3.07-7.33-8.42-12.95-13.81-18.55-7.75-8.07-14.32-16.85-16.71-28.11Z"/><path class="cls-4" d="M177.09,255.65c-5.42-15.81-6-41.9,4.35-52.22C173.6,220.38,176.82,238.11,177.09,255.65Z"/><path class="cls-3" d="M307,224.89c-9.43-10.28-19.74-19.37-33.87-24.33C284.6,199.57,303.2,213,307,224.89Z"/><path class="cls-3" d="M301.56,193c8,3.36,13.27,25.81,9.18,37.13A84.74,84.74,0,0,0,301.56,193Z"/><path class="cls-4" d="M136.79,223c1.36-15.86,9.36-27.2,20.68-28.51a40.1,40.1,0,0,0-19,28.55Z"/><path class="cls-3" d="M140.81,229c7-10.41,21.16-20.2,31.5-21.78A334.32,334.32,0,0,0,140.81,229Z"/><path class="cls-6" d="M218.83,409.23l3.84,16.59c-3.93-4.74-7.07-16.51-7.25-26.39a15.06,15.06,0,0,1,5.84,7.86c.41,1.16-.27,1.43-1.3,1l-1.23-1.2C218.06,407.85,218.57,408.53,218.83,409.23Z"/><path class="cls-7" d="M229.87,79.36c-2-4.27-.28-7.52,3.32-9.91s9.44-1.56,12.44,1.5c3.38,3.46,3.68,7.3.22,12.41.77-3.66,1.28-6.36-.26-8.88A8.18,8.18,0,0,0,239,70.55C233.56,70,230.82,72.76,229.87,79.36Z"/><path class="cls-7" d="M220.84,27.56c.95-.15,1.95-.19,2.56-1.12a72.25,72.25,0,0,1,22.87,6.71l-2,.33Z"/><path class="cls-2" d="M153.36,171.22c-.71.05-1.46,0-1.79.85-6.1-3.82-13.06-5.66-19.55-8.55,4.07-1,7.94.63,11.92.92-.75.57-1.93,1-.07,1.81A42.51,42.51,0,0,1,153.36,171.22Z"/><path class="cls-8" d="M224.24,448.76l1-.14c.65,9.63-.25,19.19-1.51,28.74C223.94,467.83,222.39,458.27,224.24,448.76Z"/><path class="cls-4" d="M274.32,376.69a39.45,39.45,0,0,1-21.88-1l-.07-1.61a73.47,73.47,0,0,0,21.95.89Z"/><path class="cls-7" d="M224.16,51.06l.36,1.53c-6.19,4.14-11.06,9.32-13.23,16.64l-1.08.08A25.42,25.42,0,0,1,224.16,51.06Z"/><path class="cls-7" d="M355.85,105.73c6.41,3.89,9.17,9.63,8.46,17.17-1.54-6.39-3.84-12.32-9.18-16.52C355.38,106.17,355.62,106,355.85,105.73Z"/><path class="cls-9" d="M274.41,153.26l0,1.77L255,156.62A50,50,0,0,1,274.41,153.26Z"/><path class="cls-7" d="M97.72,148.11c-.38.35-.76.7-1.13,1.06a22.64,22.64,0,0,1-8.06-13.9l-.32-2.07c-.1-.62-.2-1.24-.29-1.87l1.46,0C89.86,138,93.16,143.39,97.72,148.11Z"/><path class="cls-2" d="M155.43,77.31l-1.75,0a29.85,29.85,0,0,1,9.73-17.12l.51.62A48.68,48.68,0,0,0,155.43,77.31Z"/><path class="cls-7" d="M252.44,103.36l1.41,1.1-16.8,7.92C241.39,107.87,247,105.72,252.44,103.36Z"/><path class="cls-6" d="M224.25,281h-1.61l-.87-20.82,1.52-.09Z"/><path class="cls-8" d="M235.62,248.37v26C234.73,267.52,233.64,258.08,235.62,248.37Z"/><path class="cls-2" d="M320.7,84.61c-4.23-4.23-8.84-7.9-14.52-10a23,23,0,0,1,15.49,9.08Z"/><path class="cls-2" d="M154.46,192l-1-1.65a31.23,31.23,0,0,1,8.9-1.41l1.21-.09c1.88-.11,3.75-.23,5.63-.36l.12,1.47Z"/><path class="cls-2" d="M202.33,43.1c-.77-1-1.9-.6-2.89-.77,6-2.07,12.06-2.52,18.14-.33C212.5,42.46,207.37,42.05,202.33,43.1Z"/><path class="cls-2" d="M252.42,128.27c0,.56,0,1.13,0,1.69-5.73,1.66-11.7.92-17.52,1.78l-.27-1.34Z"/><path class="cls-9" d="M210.21,69.31l1.08-.08c-1.07,5.91-1.5,11.82-.13,17.77C208.7,81.2,207.66,75.34,210.21,69.31Z"/><path class="cls-2" d="M107.44,111.3l-1.35,1.38c-1.34-6.32-1.1-12.34,3.35-17.56.19.21.4.41.61.6C107.28,100.59,107.27,105.93,107.44,111.3Z"/><path class="cls-6" d="M304.3,249.89l-1.53-1.2L317.3,244l0,0C313.64,247.45,309,248.65,304.3,249.89Z"/><path class="cls-2" d="M245.33,193l-1.21-1.06c4.07-2.29,8.6-3.75,12.26-6.78l1,1c-1.48,1.85-4.64,2-5,5h0C249.56,190.08,247.82,192.92,245.33,193Z"/><path class="cls-7" d="M289.31,67.32l-1.05,1.15c-3.23-3.64-6.11-7.62-9.75-11A29.76,29.76,0,0,1,289.31,67.32Z"/><path class="cls-8" d="M223.29,260.09l-1.52.09q-.26-6.56-.52-13.1c0-.37,0-.73,0-1.09l-.06-5.06,1.16.23C222,247.5,224,253.73,223.29,260.09Z"/><path class="cls-9" d="M89.38,131.3l-1.46,0c-.9-5.33,1-9.77,4.37-13.81A32.65,32.65,0,0,0,89.38,131.3Z"/><path class="cls-10" d="M256.62,260.89l.76-1.86c.54.56,1,1.27,2,.92l.83,1.94c.49,2-1.11,4.17.24,6.17l0-.06c-1-.09-.94.71-1.1,1.33l-.63.72Z"/><path class="cls-11" d="M125.33,86.82c-4.92.19-8.48,3.19-12.51,5.94C114.48,88,118.59,86.08,125.33,86.82Z"/><path class="cls-2" d="M239.37,160.29a20.8,20.8,0,0,1,12.23,2.81l-12.22-1.77C239.37,161,239.37,160.64,239.37,160.29Z"/><path class="cls-9" d="M341.58,100.53c4.79,1,9.78,1.3,13.72,4.7l-1.59,0c-4.22-.59-7.87-3.37-12.29-3.14C341.47,101.6,341.53,101.07,341.58,100.53Z"/><path class="cls-8" d="M227.2,213.27l-1.1,1c-.68-3.91-3.58-7.57-1.19-12C226.85,205.75,226.29,209.68,227.2,213.27Z"/><path class="cls-2" d="M132.62,88.14a40.79,40.79,0,0,0,7.89,12.44c-3.56-2.6-7.31-5-8-9.74Z"/><path class="cls-6" d="M269.44,308.05l-1.11-1.13a17.79,17.79,0,0,1,8.36-6.47Q273.07,304.26,269.44,308.05Z"/><path class="cls-7" d="M244.12,93l1.06,1.14q-4.58,3.09-9.13,6.2C237.92,96.85,240.88,94.77,244.12,93Z"/><path class="cls-9" d="M244.26,33.48l2-.33a22.72,22.72,0,0,1,10.26,5.05l-.44.46Z"/><path class="cls-7" d="M264.39,142.31c0,.55,0,1.1,0,1.65l-10,2.81c0-.5,0-1,0-1.52A33.71,33.71,0,0,1,264.39,142.31Z"/><path class="cls-8" d="M326.05,254.18l-1.58-.05c-.83-4.42,1.12-8.63.93-13a6.26,6.26,0,0,1,1-.11Q326.21,247.61,326.05,254.18Z"/><path class="cls-2" d="M196.49,67.34c-.14-.77-.09-1.64-1-2,1.13-3.07,3.17-5.12,7.67-6.48C200.07,62.11,197.85,64.42,196.49,67.34Z"/><path class="cls-11" d="M262.5,191.23c-.12.53-.25,1.05-.37,1.58-3.42.27-7,1.67-9.81-1.74h0Z"/><path class="cls-12" d="M222.31,241.16l-1.16-.23c-1.66-3.89-.26-7.82-.29-11.75C221.12,233.21,223,237,222.31,241.16Z"/><path class="cls-12" d="M341.58,100.53c-.05.54-.11,1.07-.16,1.61H330.89C334.58,99.62,338.09,100.14,341.58,100.53Z"/><path class="cls-2" d="M219.56,74.24l1.67-1c-.32,3.66,1.87,6.84,2.43,11.76C221.11,80.9,219.19,78,219.56,74.24Z"/><path class="cls-11" d="M229.34,150.32c3.36.37,6.72.7,9.86,2.29-3.38.76-6.58-.26-9.8-1.08Z"/><path class="cls-12" d="M326.37,241a6.26,6.26,0,0,0-1,.11c1.42-2.86-4.92,1.44-2.23-2.39.75-1.06,1.91-3.05,3.39-2S327.69,239.62,326.37,241Z"/><path class="cls-10" d="M274.32,376.69V375l8.26-1.85A13.45,13.45,0,0,1,274.32,376.69Z"/><path class="cls-10" d="M136.79,223l1.65,0c.43,3.09-1.65,5.94-.88,9.09C136,229.18,136.35,226.09,136.79,223Z"/><path class="cls-11" d="M337.86,86.23l1.25.81c-.65,3.33-.93,6.81-3.84,9.19l.05,0C335.49,92.76,337,89.58,337.86,86.23Z"/><path class="cls-1" d="M239.37,160.29c0,.35,0,.69,0,1h-4.22l-6.75.47a1.43,1.43,0,0,0-2.16,0c-.9-2.16,1-1.63,1.8-1.64C231.82,160.12,235.6,160.23,239.37,160.29Z"/><path class="cls-10" d="M252.37,374.11l.07,1.61a10.46,10.46,0,0,1-7.16-3.89Z"/><path class="cls-2" d="M91.86,173.47l-1.11-1.26c.43-2.79,1.26-5.4,3.41-7.4l.55.46Z"/><path class="cls-11" d="M261.39,31.79c-2.61.71-5.17,1.82-8.78,1.27,3.36-1.38,5.91-2.71,8.92-2.52C261.48,31,261.43,31.38,261.39,31.79Z"/><path class="cls-9" d="M317.36,160.21l-1.1-1.11a18.91,18.91,0,0,1,7.67-4.24A18.44,18.44,0,0,1,317.36,160.21Z"/><path class="cls-8" d="M274.61,335.31c0,.46-.06.92-.1,1.38-3-.07-5.65-1.28-9.26-2.28C269.16,333.17,271.81,334.81,274.61,335.31Z"/><path class="cls-11" d="M169.36,190l-.12-1.47c2.89-1,5.62.24,8.42.61l.05,0C175.08,190.85,172.18,190,169.36,190Z"/><path class="cls-11" d="M258.17,183.89a19.85,19.85,0,0,1,5.49-6.11c-1.19,3.49-2.31,5.61-4.92,6.66C258.54,184.26,258.35,184.08,258.17,183.89Z"/><path class="cls-12" d="M234.67,130.4l.27,1.34c-2,.68-3.92.5-7.2-.06C230.76,129.74,232.74,130.21,234.67,130.4Z"/><path class="cls-1" d="M132.62,88.14l-.12,2.7c-1.34-1.23-1.39-2.94-1.69-4.57a1.73,1.73,0,0,0,.08-2.46c.54-1,1.22-1.11,1.45.06A30.32,30.32,0,0,1,132.62,88.14Z"/><path class="cls-9" d="M254.43,145.25c0,.51,0,1,0,1.52-1.2.74-2.29,1.8-4.23,1.07A5.93,5.93,0,0,1,254.43,145.25Z"/><path class="cls-9" d="M256.53,38.2a4.5,4.5,0,0,1,3.38,2.45c-1.91.08-2.81-1.06-3.81-2Z"/><path class="cls-9" d="M325.51,152.51l2.85-.29a3,3,0,0,1-3.08,1.92l.06.05C325.4,153.63,325.45,153.07,325.51,152.51Z"/><path class="cls-2" d="M163.41,60.21c.79-1.25,1.76-2.29,4.75-3-2.08,1.78-3.16,2.72-4.24,3.65Z"/><path class="cls-9" d="M248.6,149.37c-.84,1-1.79,1.85-4.4,1.65l3.89-2.15Z"/><path class="cls-11" d="M265.24,175.12c-.31.4-.61,1.14-1.09,1.29s-.58-.53-.38-.89A12.42,12.42,0,0,1,264.9,174C265,174.32,265.08,174.62,265.24,175.12Z"/><path class="cls-3" d="M264.58,361.05c-.61,1.13-1.23,2.26-4.32,1.09l3.38-1.9Z"/><path class="cls-2" d="M277.35,29.71a3,3,0,0,1-4,0Z"/><path class="cls-2" d="M94.16,164.81c.43-.92.72-2,2-2.17.26,1.37-.61,2-1.49,2.63Z"/><path class="cls-2" d="M128.09,162.48a1.93,1.93,0,0,1,2.47.76C129.43,164,128.72,163.35,128.09,162.48Z"/><path class="cls-2" d="M261.39,31.79c0-.41.09-.83.14-1.25l2.9,0c0,.23,0,.46,0,.7Z"/><path class="cls-9" d="M202.75,149.75a5.19,5.19,0,0,1-3.56.11A3.5,3.5,0,0,1,202.75,149.75Z"/><path class="cls-11" d="M257.36,186.1l-1-1,1.79-1.22c.18.19.37.37.57.55Z"/><path class="cls-9" d="M229.34,150.32l.06,1.21-3-.47c0-.24,0-.49,0-.74Z"/><path class="cls-2" d="M220.46,69.35c0,1.07.14,2.15-.81,3A3.17,3.17,0,0,1,220.46,69.35Z"/><path class="cls-9" d="M295.12,154.44l3.4-.08A3,3,0,0,1,295.12,154.44Z"/><path class="cls-11" d="M335.27,96.23l-.33,1.27c-.86-.71,0-.9.38-1.22Z"/><path class="cls-7" d="M217.19,27.46l2.8,0A2.66,2.66,0,0,1,217.19,27.46Z"/><path class="cls-2" d="M149.51,165c.69-.83,1.36-.8,2,0Z"/><path class="cls-6" d="M320.08,242.65l-.78.08c0-.15,0-.4,0-.41a3.46,3.46,0,0,1,.72-.09Z"/><path class="cls-2" d="M130.89,83.81a1.73,1.73,0,0,1-.08,2.46C130.84,85.45,130.86,84.63,130.89,83.81Z"/><path class="cls-9" d="M88.21,133.2l.32,2.07A1.76,1.76,0,0,1,88.21,133.2Z"/><path class="cls-2" d="M226.25,161.81a1.43,1.43,0,0,1,2.16,0Z"/><path class="cls-2" d="M220.45,160.39a1.15,1.15,0,0,1-2,.05Z"/><path class="cls-9" d="M325.28,154.14l-.38.75c-.77-.81.28-.47.44-.7Z"/><path class="cls-11" d="M163.61,188.84l-1.21.09Z"/><path class="cls-12" d="M221.21,246c0,.36,0,.72,0,1.09a4.4,4.4,0,0,1-.31-.75C220.92,246.24,221.11,246.1,221.21,246Z"/><path class="cls-9" d="M322.26,153c.34-.45.71-.53,1.12-.09Z"/><path class="cls-7" d="M225.42,50.31c-.41.27-.82.54-1.24.8C224.6,50.85,225,50.58,225.42,50.31Z"/><path class="cls-11" d="M265.32,192.33l1.1-.11A.65.65,0,0,1,265.32,192.33Z"/><path class="cls-9" d="M177.54,149.36c-.39.43-.76.38-1.09-.07Z"/><path class="cls-9" d="M248.09,148.87a5.07,5.07,0,0,1,1.12-.38c.34.6-.24.69-.61.88Z"/><path class="cls-2" d="M154.67,88.5c0-.45,0-.9-.08-1.35C154.62,87.6,154.64,88.05,154.67,88.5Z"/><path class="cls-7" d="M266.62,143.37a1.44,1.44,0,0,1,.89-.13l-.43.22Z"/><path class="cls-2" d="M283.56,30.23,282,30.14Z"/><path class="cls-6" d="M317.3,244l.61-.82.34.27-.92.59Z"/><path class="cls-7" d="M245.32,92.05l-1.17,1Z"/><path class="cls-7" d="M353.71,105.28l1.59,0a.87.87,0,0,1,.55.51c-.23.22-.47.43-.72.64Z"/><path class="cls-2" d="M145.05,164.57l1.47.28Z"/><path class="cls-2" d="M109.44,95.12c.17-.42.38-.9.9-.53.11.08-.18.74-.29,1.13C109.84,95.53,109.63,95.33,109.44,95.12Z"/><path class="cls-2" d="M235.16,161.33h1.5A1,1,0,0,1,235.16,161.33Z"/><path class="cls-13" d="M259.35,269.33c.16-.62.1-1.42,1.1-1.33Z"/><path class="cls-13" d="M218.83,409.23c-.26-.7-.77-1.38-.1-2.12l1.23,1.2Z"/></svg>