<svg id="Layer_1" data-name="Layer 1" xmlns="http://www.w3.org/2000/svg" viewBox="0 0 457.95 502.27"><defs><style>.cls-1{fill:#758652;}.cls-2{fill:#72824d;}.cls-3{fill:#d54d4b;}.cls-4{fill:#73834f;}.cls-5{fill:#94a079;}.cls-6{fill:#e7e7ea;}.cls-7{fill:#687940;}.cls-8{fill:#7f8c5e;}.cls-9{fill:#d87271;}.cls-10{fill:#dd8c8b;}.cls-11{fill:#d55756;}.cls-12{fill:#b0b99e;}.cls-13{fill:#dbdcdf;}.cls-14{fill:#e1b9ba;}</style></defs><path class="cls-1" d="M220.26,446.19q-.07-23.9-.16-47.79c-.21-1.67,2.08-3.27.12-5-.23-5.36.54-10.75-.53-16.08a13,13,0,0,0,.45-2.42c-.45-40.49,1.45-81-.22-121.45-.14-3.31-.42-6.62-.64-9.93l1.69.1c3.54,37.93,2.7,76,2.35,114-.27,29.54-.84,59.09-2.28,88.61A3.4,3.4,0,0,1,220.26,446.19Z"/><path class="cls-2" d="M236.85,243.62c-3.14,37.93-2.51,76-3.81,114-.76,22.23-1.38,44.47-2.06,66.7h-.7c-.47-38-.54-76.07.75-114.1.75-22.24,1.14-44.5,4.2-66.59Z"/><path class="cls-3" d="M278.37,147.75l.48-3.7v-1.6q-.28-3.33-.58-6.68c.1-.11.31-.26.28-.32a4.51,4.51,0,0,0-.39-.71c-2.79-15.25-10.11-28.71-16.87-42.38-7-14.06-12.74-28.42-14.17-44.26-.49-5.36-3.91-7.62-9.48-7-7.32.81-12.42,5.09-16.61,10.75l-1-1.17c3.75-6.6,9.32-10.75,16.83-12,7.71-1.26,12.4,2,13.31,9.69,2,16.47,8.29,31.38,15.73,45.92.34.81.7,1.64,1.06,2.47,4.4,9.68,9,19.29,11.62,29.67a52.79,52.79,0,0,1,1.37,21.26Z"/><path class="cls-4" d="M172,181.76c-14.38-11.2-17.11-26.08-13.4-42.89,2.53-11.47,7.93-21.79,13.3-32.1,4.58-8.8,9.39-17.47,13.73-26.5,1,2.13-.22,4-1,5.66-6,13.15-12.11,26.21-18.08,39.36a82.45,82.45,0,0,0-5.45,17c-3.27,15.48.8,28.56,12.66,39.12Z"/><path class="cls-4" d="M274.91,78.89c5.68,19.73,11.8,39.36,12.65,60.1.46,11-.44,21.86-5.36,32a26.23,26.23,0,0,1-6,8.48l-.24-1.85c8-11,9-23.59,8.48-36.55-.83-19.18-5.69-37.65-9.92-56.24-.22-1-.36-1.95-.54-2.92l-.21-1-.6-2Z"/><path class="cls-4" d="M200.2,179.66c-7.6-11.37-7.68-23.69-4.52-36.38,1.9-7.62,5.22-14.69,8.79-21.64,5.2-10.1,10.89-20,15.22-31.53,1.2,3.26-.09,5.16-.76,7-3.33,9.23-7.83,17.95-12.08,26.78a126.41,126.41,0,0,0-8.66,22.23c-3,11.2-2.21,22,3,32.46Z"/><path class="cls-4" d="M255.16,178.93c5.93-11.39,5.37-23,1.26-34.76-4.24-12.17-11-23-17.56-34l-9.53-16c1.85-.74,2.29.66,2.85,1.53,7.68,12,16.31,23.47,22.65,36.32,5.07,10.26,8.57,20.91,7.27,32.6A32.08,32.08,0,0,1,256,180.66C255.26,180.33,255.16,179.65,255.16,178.93Z"/><path class="cls-2" d="M188,87.82c-3,12.92-6.64,25.75-7.59,39.05-1.21,17,.95,33.36,9.71,48.33-1.79,1.09-2.05-.37-2.62-1.28-11.2-17.79-12.4-37.14-8.83-57.18,1.75-9.83,4.68-19.36,7.6-28.88Z"/><path class="cls-4" d="M268.09,324.54c11.91-3.73,18.74-12.45,23-23.6,3.52-9.15,5.4-18.72,7.06-28.34l1.48-.1c-.78,10.24-1.77,20.47-5.64,30.09-4.82,12-12.62,20.85-25.89,23.66Z"/><path class="cls-4" d="M241.29,305.41c-.18-12.41,5.65-21.74,15.49-28.54a53.63,53.63,0,0,1,23.66-8.7l1.59,1.36c-7.52,3-15.49,4.86-22.39,9.32-9.36,6.07-15.58,14.19-16.75,25.62Z"/><path class="cls-4" d="M235,356.22c2.79-20.25,9.91-38.37,26.55-51.55C248.83,319.84,240.86,337.43,235,356.22Z"/><path class="cls-3" d="M190.64,86.87c7-26.31,18.64-48.13,26-49.6C205,51.67,201.77,70.71,190.64,86.87Z"/><path class="cls-3" d="M203.12,103.61c-7.28-13.53-3.51-35.28,7.8-45.49C201.73,72.16,201.49,87.67,203.12,103.61Z"/><path class="cls-1" d="M291.4,352.3c-6.27,13.14-26.46,19.94-37.13,11.05,6.53,1.46,13,2.09,19.44-.15C280,361,285.26,357.21,291.4,352.3Z"/><path class="cls-2" d="M293.75,344.92c-13.53,3.32-27.74-4.79-42.12,3.71C258.48,340.26,267,339.76,293.75,344.92Z"/><path class="cls-1" d="M266.94,96.77c-.36-.83-.72-1.66-1.06-2.47-.74-7.35-2.73-14.65-.87-22.12.39-1.54.29-3.24,2.38-4.37C266.06,77.49,267.31,87.12,266.94,96.77Z"/><path class="cls-5" d="M188,87.82l-1.73,0c2.63-8.57.36-17.75,3.91-26.55C190.59,70.42,190.88,79.21,188,87.82Z"/><path class="cls-5" d="M274.91,78.89h-1.7c-1.77-5.12-1.92-10.51-2.61-15.81-.31-2.41-1-2.23-1.72-.16l-1.51,0a20.22,20.22,0,0,1,2.94-7.67C271.94,63.62,273.42,71.25,274.91,78.89Z"/><path class="cls-5" d="M221,243.64l-1.69-.1c-1.22-7.9-6.1-14.07-9.8-20.8l.93-.66C214.93,228.78,220.39,235,221,243.64Z"/><path class="cls-6" d="M219.69,377.34c1.07,5.33.3,10.72.53,16.08-1.53-.56-.73-2.23-1.51-3.14a74.66,74.66,0,0,0-3.65-13.88c.35-.48-.64-2.43,1.22-1.23,1.12.72,1.49,2.57,3.34,2.25Z"/><path class="cls-7" d="M242.86,354.62c6.49.53,13,.86,19.55,1.22C255.83,358.11,249.31,358.51,242.86,354.62Z"/><path class="cls-8" d="M236.85,243.62h-1.62c0-7.68,3.83-13.68,8.43-19.35.23.2.46.4.68.61C241.07,230.81,237.08,236.46,236.85,243.62Z"/><path class="cls-8" d="M219.62,377.42c-1.85.32-2.22-1.53-3.34-2.25-1.86-1.2-.87.75-1.22,1.23l-1.51.14c-.71-2.86-1.52-5.7-1.1-9.09C216.39,369.92,218.11,373.59,219.62,377.42Z"/><path class="cls-9" d="M278.37,147.75l1.56-.05a28.76,28.76,0,0,1-6.06,16.06A83.57,83.57,0,0,0,278.37,147.75Z"/><path class="cls-1" d="M213.55,376.54l1.51-.14a74.66,74.66,0,0,1,3.65,13.88l-1.66.12C215,386,214.29,381.27,213.55,376.54Z"/><path class="cls-5" d="M268.09,324.54l0,1.71c-5.24.61-10.44.77-16.83-1.71Z"/><path class="cls-8" d="M255.16,178.93c0,.72.1,1.4.87,1.73a18.15,18.15,0,0,1-10.9,8.65A42.44,42.44,0,0,0,255.16,178.93Z"/><path class="cls-8" d="M282,269.53l-1.59-1.36,13.06-3.77C290.25,267.65,286.17,268.68,282,269.53Z"/><path class="cls-8" d="M172,181.76l1.76-.32,11.08,6.72A23.49,23.49,0,0,1,172,181.76Z"/><path class="cls-5" d="M276,177.61l.24,1.85A22.82,22.82,0,0,1,265,187.05c0-.45,0-.9,0-1.35C269.39,184,272.6,180.67,276,177.61Z"/><path class="cls-10" d="M216.08,62.84c-.8,5.32-2.56,10.5-2.38,16-.75-5.42-1.29-10.81,1-16Z"/><path class="cls-11" d="M216.08,62.84l-1.4,0c1.21-4.29,2.35-8.62,5.33-12.14l1,1.17Z"/><path class="cls-5" d="M299.65,272.5l-1.48.1c.31-4.35,1.62-8.55.84-13.06l1.81.2Z"/><path class="cls-12" d="M248.38,213.8c.6-4.7,2.2-9.24,2.12-14.06.53,5.11,1.14,10.2-1.33,15Z"/><path class="cls-13" d="M205.71,209.64c-1.18-3.74-.92-7.36,1.33-12.29,0,5.07,0,8.73,0,12.38Z"/><path class="cls-12" d="M220.26,446.19a3.4,3.4,0,0,0,.78,0V465h-.78Z"/><path class="cls-12" d="M205.71,209.64l1.34.09c.29,4.34,2.24,8.23,3.36,12.35l-.93.66C207,218.74,206.21,214.22,205.71,209.64Z"/><path class="cls-14" d="M265,185.7c0,.45,0,.9,0,1.35-3,1.92-6.22,2.8-11.16,2.39Z"/><path class="cls-8" d="M217.05,390.4l1.66-.12c.78.91,0,2.58,1.51,3.14,2,1.71-.33,3.31-.12,5A21.14,21.14,0,0,1,217.05,390.4Z"/><path class="cls-5" d="M248.38,213.8l.79.93c-.68,3.3-1.55,6.51-4,9-.05-.48-.09-1-.13-1.44Z"/><path class="cls-5" d="M241.29,305.41l1.6-.94v9.15C241.38,310.51,240.87,308.06,241.29,305.41Z"/><path class="cls-8" d="M230.28,424.3h.7v9.27h-.7Z"/><path class="cls-8" d="M200.2,179.66l1-1.07,2.72,3.6-1,.72A6.85,6.85,0,0,1,200.2,179.66Z"/><path class="cls-8" d="M188.5,189.39l.7.32c-.11.06-.25.21-.34.19a5.6,5.6,0,0,1-.71-.3Z"/><path class="cls-1" d="M267.37,62.94l1.51,0c-.36,1.36-.72,2.72-1.25,4.7C266.17,65.55,267.16,64.24,267.37,62.94Z"/><path class="cls-8" d="M207.72,187.08a4.68,4.68,0,0,1-2.76-2.23l.72-.78,2.59,2.48Z"/><path class="cls-8" d="M242.32,190.13c.25-.15.53-.45.73-.4s.52.37.77.57c-.26.1-.53.3-.77.27S242.57,190.29,242.32,190.13Z"/><path class="cls-8" d="M245,222.3c0,.48.08,1,.13,1.44l-.81,1.13c-.22-.21-.45-.41-.68-.61C244.11,223.61,244.57,223,245,222.3Z"/><path class="cls-5" d="M273.81,80.91l.21,1a4.41,4.41,0,0,1-.33-.65C273.66,81.16,273.77,81,273.81,80.91Z"/><path class="cls-8" d="M208.27,186.55c.45.15.84.38.49.89-.06.08-.68-.24-1-.36Z"/><path class="cls-8" d="M205,184.85l-1-.95.76-.84,1,1Z"/><path class="cls-9" d="M278.85,142.45v0Z"/><path class="cls-9" d="M278.16,134.74a4.51,4.51,0,0,1,.39.71c0,.06-.18.21-.28.32Z"/><path class="cls-8" d="M203.92,183.9l-1-1,1-.72.75.87Z"/></svg>