<svg id="Layer_1" data-name="Layer 1" xmlns="http://www.w3.org/2000/svg" viewBox="0 0 457.95 502.27"><defs><style>.cls-1{fill:#72824d;}.cls-2{fill:#d54d4b;}.cls-3{fill:#73834f;}.cls-4{fill:#758652;}.cls-5{fill:#7f8c5e;}.cls-6{fill:#b0b99e;}.cls-7{fill:#d55756;}.cls-8{fill:#94a079;}.cls-9{fill:#d87271;}.cls-10{fill:#e1b9ba;}.cls-11{fill:#dd8c8b;}.cls-12{fill:#dbdcdf;}.cls-13{fill:#fdfdfd;}</style></defs><path class="cls-1" d="M215.22,270.42a1569.25,1569.25,0,0,1,2,170.64h-1.63c.11-56.87.14-113.73-1.84-170.57Z"/><path class="cls-1" d="M225.73,432q-.94-56.77-.36-113.54c.14-12,.32-23.9.47-35.85l1.39-.19c1.18,46.55,1.46,93.1.18,139.66-.09,3.32-.16,6.65-.23,10Z"/><path class="cls-2" d="M238.6,174.52c-.75-19-9.1-34.77-21.21-48.84-8.15-9.47-17.74-17.51-26.59-26.27-6.7-6.62-12.37-13.9-14.54-23.36a18.48,18.48,0,0,1,.23-10.32l.93,2C176.76,77.94,181.53,86,188.27,93c6.46,6.67,13.47,12.8,20.32,19.09,15.67,14.36,27.55,31,31.21,52.45a48.06,48.06,0,0,1,.35,12.9C239.63,176.45,239.12,175.48,238.6,174.52Z"/><path class="cls-2" d="M263.08,112.72c3.92,11.83,8.1,23.61,9.66,36.05,2.14,17.1-1.87,32.38-14.27,44.86-3.75,3.79-8.14,6.7-14,6.63,11.58-4.36,18-13.37,22.17-24.32s4.18-22.07,2.19-33.41c-1.69-9.68-4.72-19-6.87-28.58Z"/><path class="cls-3" d="M240.84,329c-3.63-12.14-1.16-23.26,6.37-33.45,5.31-7.17,12.47-11.86,20.61-15.14,9.66-3.9,19.8-6,30.71-8.36-2.06,2.58-4.35,2.61-6.31,3.28-7.21,2.47-14.58,4.54-21.69,7.29C252,289.79,237.44,305.64,240.84,329Z"/><path class="cls-2" d="M260.23,89.57C248,94,234.6,93.77,222.48,98.73l-1.1-1c6.62-4.17,14.26-5.15,21.66-6.9,4.19-1,8.4-2,12.49-3.3a21.81,21.81,0,0,0,10.24-6.78c7-8.39,4.71-17.33-5.42-21.45-2.07-1.54-4.78.25-6.84-1.33,8.66-1.27,14,1,17.32,7.29,3,5.72,1.59,13-3.86,18.64a88,88,0,0,1-6.75,5.7Z"/><path class="cls-1" d="M268.4,346.6c20.94.33,31.85-14.24,35.87-35,1.74-9,2.39-18.09,3.14-27.19h1.65c-.19,12.24-.17,24.54-3.91,36.35-4.34,13.75-12.23,24.12-27.5,26.79a2.08,2.08,0,0,0-2.38.47l-6.92.08Z"/><path class="cls-2" d="M189.15,196.67c-14.58-9-21-23.54-18.26-41.3a154.23,154.23,0,0,1,7.58-28.76h1.82c-2.64,10.23-5.54,20.41-6.47,31-1.38,15.65,3.14,28.71,16.55,37.9Z"/><path class="cls-2" d="M202.93,54.58c-.58-9.82.67-12,8.32-14.55l.09,1.61c-1.12.72-2.28,1.36-3.34,2.16-2.14,1.63-3.25,3.77-2.65,6.51s2.79,3.95,5.37,4.44c4.3.81,8.61.15,12.91,0,2.32-.08,4.65-.25,7-.18,7,.22,10.38,3.86,9.69,10.83-.35,3.49-.5,7.14-3.38,10.08.38-2.89.85-5.79,1.13-8.7.63-6.64-1.76-9.31-8.33-9.23a69.88,69.88,0,0,0-8.43.65,28,28,0,0,1-18.41-3.64Z"/><path class="cls-4" d="M152.15,121.59a81.34,81.34,0,0,0,2.93,45.18,44.08,44.08,0,0,0,11.16,17.51l-1.94.3c-11.07-9.23-15.1-21.82-16.51-35.46a68,68,0,0,1,2.73-27.49Z"/><path class="cls-3" d="M230.71,381c3.18-19.59,9.61-37.81,22.54-53.26,1.8-2.15,3.88-4.05,5.83-6.06.11.61.23,1.23.34,1.84a142.5,142.5,0,0,0-27.22,57.59Z"/><path class="cls-4" d="M178.11,206.8c-7.08,12.26-8.17,25.85-8.67,39.54-.18,5,0,10,.08,15l-1.05,1c-2.67-16-3.16-31.78,3.06-47.15a30.18,30.18,0,0,1,5.49-9.43Z"/><path class="cls-3" d="M304.08,158.66c-.78,8.2-2.7,16.07-7.69,22.79-7.83,10.54-18.62,14.66-31.63,13.8,22-2.6,33.7-15.62,37.71-36.57Z"/><path class="cls-1" d="M246.34,264.37c-3.68-6.74-8.62-12.54-13.64-18.29a62.4,62.4,0,0,1-14-27.43c2.32-.28,2.14,1.56,2.52,2.58a73.07,73.07,0,0,0,13.55,22.41c5.42,6.3,10.54,12.8,13.43,20.73Z"/><path class="cls-3" d="M176.34,253.27c3.3-4.06,7.78-6.68,11.89-9.76,4.64-3.49,9.37-6.89,13.87-10.56s7.64-8.54,10.85-13.69c1.15,2.73-.5,4.29-1.41,5.92-4.77,8.49-12,14.53-20,19.83-4.7,3.12-9.36,6.3-14,9.46Z"/><path class="cls-4" d="M158.37,110.61c-1.49,11.82-2,23.66,0,35.46.72,4.21,2,8.32,3,12.48h-1.95c-5.65-12.1-6.42-24.76-4.49-37.78.34-2.34,1.61-4.67.57-7.14l-.07,0c1.39,0,1-1.39,1.55-2.07Z"/><path class="cls-3" d="M254.49,390.9c19.93,5.75,33.37-5.06,46.19-17.43C296.78,389.63,266,401.43,254.49,390.9Z"/><path class="cls-3" d="M298.35,366.91c-15.56,2.35-31.1-5.93-45.57,3C258.75,361.33,277,360.2,298.35,366.91Z"/><path class="cls-1" d="M257.22,216.49c2.79,12.31.36,24.3-2.2,36.28-.9,4.2-1.86,8.39-2.79,12.58l-1.67,0q2.5-18,5-35.93a46,46,0,0,0-.14-12.89Z"/><path class="cls-2" d="M204.17,61.74a71.56,71.56,0,0,1-4.1,36.49q1.25-18.26,2.48-36.5Z"/><path class="cls-4" d="M302.07,154.46c-6,10.39-15.14,15.58-27.05,16a63.29,63.29,0,0,0,26.19-17Z"/><path class="cls-5" d="M206.58,399.92c4,2.56,5.53,5.56,6.67,9.52l-3.49-1.27A118.45,118.45,0,0,1,214,427.55C209.15,418.68,207.72,409.77,206.58,399.92Z"/><path class="cls-4" d="M161.24,108.71c2,9.65,2,19.94,9.66,28.18-8-3.29-12.1-13.68-10.85-26.48C160.45,109.85,160.85,109.28,161.24,108.71Z"/><path class="cls-6" d="M227.23,282.44l-1.39.19c-.7-10.92-.72-21.82,1.39-32.68Z"/><path class="cls-7" d="M211.94,52.22c3.34-.47,6.1-.74,8.8-1.3,1.34-.28,3.3-.47,3.33-2.31,0-1.54-1.76-1.75-2.92-2.24a37.27,37.27,0,0,0-3.69-1.16c.37-.25.6-.56.83-.55,3.45.1,8-.26,8.18,4.2s-4.63,4.24-7.95,4.67A10.32,10.32,0,0,1,211.94,52.22Z"/><path class="cls-3" d="M241.11,378.52c7.92.15,15.79,1.26,23.74.92C256.75,382.64,248.88,381.5,241.11,378.52Z"/><path class="cls-7" d="M250.15,54.69c-4.92-5.12-11.06-5.3-18.11-4.87C240.38,45.55,248.61,47.91,250.15,54.69Z"/><path class="cls-8" d="M250.56,265.31l1.67,0L251,277.07c-1.81-4.15-3-8.51-4.69-12.7h1.84c.56,1.14,1.13,2.27,1.79,3.6C250.21,266.88,250.38,266.09,250.56,265.31Z"/><path class="cls-8" d="M215.56,441.05h1.63a93.41,93.41,0,0,1-1.63,22.17Z"/><path class="cls-8" d="M215.22,270.42l-1.5.06q-.5-10.94-1-21.86l1.41-.12Q214.69,259.47,215.22,270.42Z"/><path class="cls-9" d="M189.15,196.67l1.22-1.15c5.34,2.45,10.74,4.74,16.64,5.56C200.48,201.83,194.64,199.94,189.15,196.67Z"/><path class="cls-10" d="M227.21,443.07v15.25h-1.6V443Z"/><path class="cls-9" d="M238.6,174.52c.52,1,1,1.93,1.55,2.9a21.59,21.59,0,0,1-4.68,13.23c-.18-.23-.37-.45-.56-.67A42.16,42.16,0,0,0,238.6,174.52Z"/><path class="cls-8" d="M161.24,108.71c-.39.57-.79,1.14-1.19,1.7l-1.68.2-1.38,1c-1.53-.06-1.59,1-1.55,2.07l.07,0-1,0-.31-.3c.16-2.66,2.26-4.19,3.65-6.09.6-.83,1.26-2.38,2.4-2C161.62,105.8,161.31,107.43,161.24,108.71Z"/><path class="cls-9" d="M180.29,126.62h-1.82l4.8-14.39.42,1.81A52.84,52.84,0,0,1,180.29,126.62Z"/><path class="cls-8" d="M159.43,158.54h1.95l6,11,.06-.06C163.17,167,161.19,162.85,159.43,158.54Z"/><path class="cls-10" d="M260.22,89.55c2.1,4.27.55,8.81,1,13.21l-1.29,1c-1.83-4.78.05-9.47.34-14.2Z"/><path class="cls-8" d="M309.06,284.41h-1.65c-.66-4.69,1.06-9.21,1-13.86.31-.08.62-.14.94-.19Z"/><path class="cls-9" d="M177.42,67.68l-.93-2A14.15,14.15,0,0,1,182,56.36c.18.13.35.27.52.41A39.72,39.72,0,0,0,177.42,67.68Z"/><path class="cls-10" d="M184.4,53.72c4-3.48,8.64-4.3,14.93-3.74-5.6,1.3-10.15,2.05-14,4.62Z"/><path class="cls-10" d="M214.15,248.5l-1.41.12c-.81-5.06-.38-10.11.23-15.19C212.57,238.53,214.86,243.38,214.15,248.5Z"/><path class="cls-7" d="M211.34,41.64,211.25,40c3.57-1.17,7.12-1.66,11.64.55C218.33,40.88,214.75,40.51,211.34,41.64Z"/><path class="cls-8" d="M227.21,443.07l-1.6-.07.12-11,1.45.05Z"/><path class="cls-11" d="M183.69,114l-.42-1.81c.12-3.63,1.49-6.92,2.78-10.23C185.84,106.12,185.59,110.24,183.69,114Z"/><path class="cls-8" d="M257.22,216.49h-1.78c-.86-2.89-1.73-5.78-2.59-8.67C255.83,210,256.79,213.09,257.22,216.49Z"/><path class="cls-6" d="M168.47,262.34l1.05-1,1.33.06,1.44-.06c-.72,2.63-1.43,5.26-2.29,8.4A13.29,13.29,0,0,1,168.47,262.34Z"/><path class="cls-6" d="M230.71,381l1.49.11c-.45,3.68-.7,7.41-2.46,11.39C229.08,388.2,230,384.6,230.71,381Z"/><path class="cls-11" d="M253.51,57.92c2.06,1.58,4.77-.21,6.84,1.33-4.67-.13-9.12.51-12.92,3.55l-.37-.41C248.27,59.55,250.9,58.74,253.51,57.92Z"/><path class="cls-6" d="M302.07,154.46l-.86-1c.15-1.19.58-2.42,1.89-2.38s1.1,1.4,1.12,2.29c0,1.75-.09,3.51-.14,5.26l-1.61,0C302.34,157.27,302.2,155.86,302.07,154.46Z"/><path class="cls-5" d="M172.29,261.31l-1.44.06a15.77,15.77,0,0,1,5.49-8.1l1.2,1.2C175.79,256.75,173.46,258.59,172.29,261.31Z"/><path class="cls-10" d="M229.3,202.91c3.11-1.71,6.07-1.89,8.9,0Z"/><path class="cls-9" d="M259.89,103.77l1.29-1q1,5,1.9,10L262,114C260.38,110.75,260.36,107.21,259.89,103.77Z"/><path class="cls-8" d="M164.3,184.58l1.94-.3,7,4.42C169.47,188.85,166.74,187,164.3,184.58Z"/><path class="cls-6" d="M261.34,347.17a21.4,21.4,0,0,1-9.57-3.66c3.77.16,6.67,1.35,9.6,2.37Z"/><path class="cls-9" d="M216.55,102.81l-5,7.79c.8-3.38,1.68-6.34,4.29-8.44Z"/><path class="cls-12" d="M309.32,270.35c-.32,0-.63.11-.94.19-.4-1.1.39-3-1.84-2.92a5.67,5.67,0,0,1-.5-.48c1.14-.92,2.11-3.35,3.63-2C310.88,266.27,310.88,268.7,309.32,270.35Z"/><path class="cls-5" d="M259.42,323.52c-.11-.61-.23-1.23-.34-1.84a15.84,15.84,0,0,1,5.74-4.79c.22.19.43.37.63.56Z"/><path class="cls-9" d="M204.17,61.74h-1.62a16,16,0,0,1,.38-7.15h-.07C203.41,56.94,204.58,59.2,204.17,61.74Z"/><path class="cls-8" d="M261.34,347.17l0-1.29,7,.72c0,.5,0,1,0,1.5C265.9,348.63,263.71,347.27,261.34,347.17Z"/><path class="cls-9" d="M221.38,97.68l1.1,1-4.9,3.12c-.23-.24-.47-.48-.71-.71A9.49,9.49,0,0,1,221.38,97.68Z"/><path class="cls-11" d="M245.31,65.68c-.36,1.23-.72,2.46-1.07,3.7a3.57,3.57,0,0,1,1.13-3.65Z"/><path class="cls-11" d="M247.43,62.8a4.66,4.66,0,0,1-2.12,2.88l.06,0a2.9,2.9,0,0,1,1.69-3.34Z"/><path class="cls-8" d="M180.13,204l-2,2.76-1.09-1c.72-.84,1.43-1.69,2.15-2.54Z"/><path class="cls-12" d="M306.54,267.62c-.44.66-.87,1.32-1.36,1.94,0,.05-.68-.17-.71-.33-.24-1.24.56-1.76,1.57-2.09A5.67,5.67,0,0,0,306.54,267.62Z"/><path class="cls-5" d="M264.82,316.89c.34-.56.89-1.11,1.4-.49.65.79-.22.9-.77,1.05C265.25,317.26,265,317.08,264.82,316.89Z"/><path class="cls-8" d="M181.88,202l-1.75,2-1-.82,2.1-1.89C181.47,201.57,181.67,201.8,181.88,202Z"/><path class="cls-9" d="M182,56.36a2.62,2.62,0,0,1,2.18-1.84l.3.23a3.35,3.35,0,0,1-2,2C182.32,56.63,182.15,56.49,182,56.36Z"/><path class="cls-3" d="M241.92,332.77l-.15.36a2.5,2.5,0,0,1,0-.47,1.1,1.1,0,0,1,.17-.32Z"/><path class="cls-8" d="M275.27,348a2.08,2.08,0,0,1,2.38-.47A2.31,2.31,0,0,1,275.27,348Z"/><path class="cls-9" d="M235.47,190.65c-.31.23-.83.71-.91.65-.82-.64-.08-1,.35-1.32C235.1,190.2,235.29,190.42,235.47,190.65Z"/><path class="cls-8" d="M181.27,201.33a1.55,1.55,0,0,1,2.14-.84l0,0L181.88,202C181.67,201.8,181.47,201.57,181.27,201.33Z"/><path class="cls-8" d="M167.38,169.54l.36.21-.3-.27Z"/><path class="cls-9" d="M215.88,102.16l1-1,.7.71-1,1Z"/><path class="cls-8" d="M183.41,200.49c-.12-.81.33-1,1-1l-.08-.08c0,.67-.36,1-1,1Z"/><path class="cls-8" d="M184.44,199.53l.36-.72c.67.78-.24.46-.44.64Z"/><path class="cls-9" d="M184.4,53.72l.89.88a1.38,1.38,0,0,1-.84.15l-.3-.23A.84.84,0,0,1,184.4,53.72Z"/><path class="cls-13" d="M155.44,113.67c0-1.1,0-2.13,1.55-2.07C156.46,112.28,156.83,113.64,155.44,113.67Z"/></svg>